<svg id="Calque_1" data-name="Calque 1" xmlns="http://www.w3.org/2000/svg" viewBox="0 0 40 40"><defs><style>.cls-1{fill:#fff;}.cls-2{fill:#f07829;}</style></defs><rect class="cls-1" x="1.47" y="7.65" width="37.05" height="24.7" rx="3.33"/><path class="cls-2" d="M35.2,8.12A2.86,2.86,0,0,1,38.05,11V29a2.86,2.86,0,0,1-2.85,2.86H4.8A2.86,2.86,0,0,1,2,29V11A2.86,2.86,0,0,1,4.8,8.12H35.2m0-.94H4.8A3.81,3.81,0,0,0,1,11V29a3.8,3.8,0,0,0,3.8,3.8H35.2A3.8,3.8,0,0,0,39,29V11a3.81,3.81,0,0,0-3.8-3.79Z"/><path class="cls-2" d="M7.88,25a.69.69,0,0,1-1.18-.49V15.53a.67.67,0,0,1,.2-.5.66.66,0,0,1,.49-.19H10a3.5,3.5,0,0,1,1.75.44A3,3,0,0,1,13,16.49a3.57,3.57,0,0,1,.43,1.77A3.35,3.35,0,0,1,13,20a3,3,0,0,1-1.2,1.18,3.59,3.59,0,0,1-1.75.42h-2v2.89A.66.66,0,0,1,7.88,25Zm3.63-5.22a2,2,0,0,0,.58-1.48,2.12,2.12,0,0,0-.58-1.54A2,2,0,0,0,10,16.11h-2v4.2h2A2,2,0,0,0,11.51,19.74Z"/><path class="cls-2" d="M21.76,24.54a.62.62,0,0,1-.17.44.66.66,0,0,1-.49.18.67.67,0,0,1-.59-.33l-2.27-3.65H16.31v3.29a.66.66,0,0,1-.2.49.65.65,0,0,1-.49.2.68.68,0,0,1-.49-.2.66.66,0,0,1-.2-.49V15.53a.67.67,0,0,1,.69-.69H18a3.73,3.73,0,0,1,1.75.41A3,3,0,0,1,21,16.4a3.27,3.27,0,0,1,.43,1.69,3,3,0,0,1-.48,1.67,2.87,2.87,0,0,1-1.29,1.09l2,3.25A.8.8,0,0,1,21.76,24.54ZM18,19.91a2.21,2.21,0,0,0,1.48-.5,1.67,1.67,0,0,0,.58-1.32,1.88,1.88,0,0,0-.58-1.43A2.06,2.06,0,0,0,18,16.11H16.31v3.8Z"/><path class="cls-2" d="M30.77,15.38a4.74,4.74,0,0,1,1.86,1.88A5.47,5.47,0,0,1,33.3,20a5.55,5.55,0,0,1-.67,2.75,4.78,4.78,0,0,1-1.85,1.88,5.88,5.88,0,0,1-5.45,0,4.74,4.74,0,0,1-1.86-1.88A5.65,5.65,0,0,1,22.81,20a5.57,5.57,0,0,1,.66-2.73,4.74,4.74,0,0,1,1.86-1.88,5.86,5.86,0,0,1,5.44,0ZM26,16.48a3.75,3.75,0,0,0-1.4,1.45,4.51,4.51,0,0,0,0,4.13A3.75,3.75,0,0,0,26,23.51a3.92,3.92,0,0,0,5.45-1.45,4.51,4.51,0,0,0,0-4.13,3.75,3.75,0,0,0-1.4-1.45,4.13,4.13,0,0,0-4,0Z"/></svg>