<?xml version="1.0" encoding="utf-8"?>
<!-- Generator: Adobe Illustrator 21.0.2, SVG Export Plug-In . SVG Version: 6.00 Build 0)  -->
<svg version="1.1" id="Nimble-logo-fond-blanc-horizontal"
	 xmlns="http://www.w3.org/2000/svg" xmlns:xlink="http://www.w3.org/1999/xlink" x="0px" y="0px" viewBox="0 0 540 144"
	 style="enable-background:new 0 0 540 144;" xml:space="preserve">
<style type="text/css">
	.st0{opacity:0.25;fill:#30B0D8;}
	.st1{fill:#30B0D8;}
	.st2{opacity:0.6;fill:#FFFFFF;}
	.st3{opacity:0.8;fill:#FFFFFF;}
</style>
<g>
	<g>
		<g>
			<g>
				<path class="st0" d="M26,43.7v71.6c0,3.2,2.6,5.7,5.7,5.7h71.6c3.2,0,5.7-2.6,5.7-5.7V43.7c0-3.2-2.6-5.7-5.7-5.7H31.7
					C28.6,38,26,40.6,26,43.7z"/>
				<path class="st1" d="M40.9,28.6v71.6c0,3.2,2.6,5.7,5.7,5.7h71.6c3.2,0,5.7-2.6,5.7-5.7V28.6c0-3.2-2.6-5.7-5.7-5.7H46.6
					C43.5,22.9,40.9,25.5,40.9,28.6z"/>
				<g>
					<path class="st2" d="M65.8,87.5L65.8,87.5c-2.8,0-5.1-2.3-5.1-5.1V46.5c0-2.8,2.3-5.1,5.1-5.1h0c2.8,0,5.1,2.3,5.1,5.1v35.9
						C70.9,85.2,68.6,87.5,65.8,87.5z"/>
					<path class="st2" d="M99.1,87.5L99.1,87.5c-2.8,0-5.1-2.3-5.1-5.1V63.3c0-2.8,2.3-5.1,5.1-5.1h0c2.8,0,5.1,2.3,5.1,5.1v19.1
						C104.2,85.2,101.9,87.5,99.1,87.5z"/>
					<path class="st3" d="M82.5,42c-12,0-21.7,9.8-21.7,21.7c0,2.8,2.3,5.1,5.1,5.1c2.8,0,5.1-2.3,5.1-5.1c0-6.4,5.2-11.5,11.5-11.5
						c6.4,0,11.5,5.2,11.5,11.5c0,2.8,2.3,5.1,5.1,5.1c2.8,0,5.1-2.3,5.1-5.1C104.2,51.8,94.4,42,82.5,42z"/>
				</g>
			</g>
		</g>
	</g>
	<g>
		<g>
			<g>
				<path class="st1" d="M155.9,66.2c2.4-1.9,5.2-2.8,8.4-2.8c1.9,0,3.7,0.4,5.4,1.1c1.7,0.7,3.2,1.7,4.5,3c1.3,1.3,2.3,2.8,3.1,4.5
					c0.8,1.7,1.1,3.5,1.1,5.5v13.3c0,0.8-0.3,1.5-0.8,2c-0.5,0.5-1.2,0.8-2,0.8c-0.8,0-1.5-0.3-2-0.8c-0.5-0.5-0.8-1.2-0.8-2V77.4
					c0-1.2-0.2-2.2-0.7-3.3c-0.4-1-1.1-1.9-1.8-2.7c-0.8-0.8-1.7-1.4-2.7-1.8c-1-0.4-2.1-0.7-3.3-0.7c-1.2,0-2.3,0.2-3.3,0.7
					c-1,0.4-1.9,1-2.7,1.8c-0.8,0.8-1.4,1.7-1.8,2.7s-0.7,2.1-0.7,3.3v13.3c0,0.8-0.3,1.5-0.8,2c-0.5,0.5-1.2,0.8-2,0.8
					c-0.8,0-1.5-0.3-2-0.8c-0.5-0.5-0.8-1.2-0.8-2V66.2c0-0.8,0.3-1.4,0.8-2c0.5-0.6,1.2-0.8,2-0.8c0.8,0,1.4,0.3,2,0.8
					C155.7,64.8,155.9,65.4,155.9,66.2z"/>
				<path class="st1" d="M190.3,58c0,0.9-0.3,1.7-1,2.3s-1.4,1-2.3,1c-0.9,0-1.7-0.3-2.3-1s-1-1.4-1-2.3c0-0.9,0.3-1.7,1-2.3
					c0.6-0.6,1.4-1,2.3-1c0.9,0,1.7,0.3,2.3,1C190,56.3,190.3,57.1,190.3,58z M184.2,90.7V66.2c0-0.8,0.3-1.5,0.8-2
					c0.5-0.5,1.2-0.8,2-0.8c0.8,0,1.4,0.3,2,0.8c0.5,0.5,0.8,1.2,0.9,2v24.5c0,0.8-0.3,1.5-0.9,2c-0.5,0.5-1.2,0.8-2,0.8
					c-0.8,0-1.4-0.3-2-0.8C184.5,92.2,184.2,91.5,184.2,90.7z"/>
				<path class="st1" d="M238.2,90.7c0,0.8-0.3,1.5-0.8,2c-0.5,0.5-1.2,0.8-2,0.8c-0.8,0-1.5-0.3-2-0.8c-0.5-0.5-0.8-1.2-0.8-2V75.4
					c0-0.9-0.2-1.7-0.5-2.5c-0.3-0.8-0.8-1.5-1.4-2c-0.6-0.6-1.3-1-2-1.4c-0.8-0.3-1.6-0.5-2.5-0.5c-0.9,0-1.7,0.2-2.5,0.5
					c-0.8,0.3-1.5,0.8-2,1.4c-0.6,0.6-1,1.2-1.4,2c-0.3,0.8-0.5,1.6-0.5,2.5v15.3c0,0.8-0.3,1.5-0.8,2c-0.5,0.5-1.2,0.8-2,0.8
					c-0.8,0-1.5-0.3-2-0.8c-0.5-0.5-0.8-1.2-0.8-2V75.4c0-0.9-0.2-1.7-0.5-2.5c-0.3-0.8-0.8-1.4-1.4-2c-0.6-0.6-1.3-1-2-1.4
					c-0.8-0.3-1.6-0.5-2.5-0.5s-1.7,0.2-2.5,0.5c-0.8,0.3-1.5,0.8-2,1.4c-0.6,0.6-1,1.3-1.4,2c-0.3,0.8-0.5,1.6-0.5,2.5v15.3
					c0,0.8-0.3,1.5-0.8,2c-0.5,0.5-1.2,0.8-2,0.8c-0.8,0-1.5-0.3-2-0.8c-0.5-0.5-0.8-1.2-0.8-2V66.2c0-0.8,0.3-1.4,0.8-2
					c0.5-0.5,1.2-0.8,2-0.8c0.6,0,1.2,0.2,1.7,0.5c0.5,0.4,0.8,0.8,1,1.4c1.9-1.3,4.1-1.9,6.5-1.9c1.8,0,3.5,0.4,5.1,1.1
					c1.6,0.7,3,1.8,4.2,3.2c2.5-2.9,5.6-4.3,9.2-4.3c1.6,0,3.2,0.3,4.7,1c1.5,0.6,2.7,1.5,3.8,2.6c1.1,1.1,1.9,2.4,2.6,3.8
					c0.6,1.5,1,3,1,4.6V90.7z"/>
				<path class="st1" d="M248.7,66.7c2.7-2.2,5.8-3.3,9.5-3.3c4.1,0,7.7,1.5,10.7,4.4c1.5,1.5,2.6,3.1,3.3,4.9
					c0.7,1.8,1.1,3.7,1.1,5.8c0,4.2-1.5,7.8-4.4,10.7c-3,2.9-6.5,4.4-10.7,4.4c-4.2,0-7.7-1.5-10.7-4.4c-2.9-2.9-4.4-6.5-4.4-10.7
					V53.2c0-0.8,0.3-1.5,0.8-2c0.5-0.5,1.2-0.8,2-0.8c0.8,0,1.5,0.3,2,0.8c0.5,0.5,0.8,1.2,0.8,2V66.7z M258.2,87.9
					c1.3,0,2.5-0.3,3.7-0.8c1.2-0.5,2.2-1.2,3-2c0.9-0.9,1.5-1.9,2-3c0.5-1.1,0.7-2.4,0.7-3.7c0-1.3-0.2-2.5-0.7-3.7s-1.2-2.1-2-3
					c-0.9-0.9-1.9-1.5-3-2c-1.2-0.5-2.4-0.8-3.7-0.8c-1.3,0-2.6,0.3-3.7,0.8c-1.2,0.5-2.1,1.2-3,2c-0.8,0.9-1.5,1.9-2,3
					c-0.5,1.1-0.7,2.4-0.7,3.7c0,1.3,0.2,2.5,0.7,3.7c0.5,1.2,1.2,2.2,2,3c0.8,0.9,1.8,1.5,3,2C255.6,87.7,256.8,87.9,258.2,87.9z"
					/>
				<path class="st1" d="M277.3,90.8V53.3c0-0.8,0.3-1.5,0.8-2c0.5-0.5,1.2-0.8,2-0.8c0.8,0,1.5,0.3,2,0.8c0.5,0.5,0.8,1.2,0.8,2
					v34.7h1.3c0.8,0,1.4,0.3,2,0.8c0.5,0.5,0.8,1.2,0.8,2c0,0.8-0.3,1.4-0.8,2c-0.5,0.5-1.2,0.8-2,0.8h-4.1c-0.8,0-1.4-0.3-2-0.8
					C277.6,92.2,277.3,91.5,277.3,90.8z"/>
				<path class="st1" d="M313.5,85.1c0.8,0,1.5,0.3,2,0.8c0.5,0.5,0.8,1.2,0.8,2c0,0.8-0.3,1.5-0.8,2c-2.8,2.4-6.1,3.7-9.9,3.7
					c-4.2,0-7.7-1.5-10.7-4.4c-2.9-2.9-4.4-6.5-4.4-10.7s1.5-7.7,4.4-10.7c2.9-2.9,6.5-4.4,10.7-4.4c4.1,0,7.7,1.5,10.7,4.4
					c1.5,1.5,2.6,3.1,3.3,4.9c0.7,1.8,1.1,3.7,1.1,5.8c0,0.8-0.3,1.5-0.8,2c-0.5,0.5-1.2,0.8-2,0.8h-21.3c0.3,1,0.8,1.9,1.3,2.7
					c0.6,0.8,1.3,1.5,2.1,2.1c0.8,0.6,1.7,1,2.6,1.4c1,0.3,2,0.5,3,0.5c1.2,0,2.3-0.2,3.3-0.5c1-0.4,1.9-0.9,2.7-1.6
					C312.2,85.3,312.8,85.1,313.5,85.1z M314.7,75.7c-0.3-1-0.8-1.9-1.4-2.7c-0.6-0.8-1.3-1.5-2.1-2.1c-0.8-0.6-1.7-1-2.6-1.4
					s-2-0.5-3-0.5s-2,0.2-3,0.5c-1,0.3-1.9,0.8-2.7,1.4c-0.8,0.6-1.5,1.3-2.1,2.1s-1,1.7-1.3,2.7H314.7z"/>
			</g>
			<g>
				<path class="st1" d="M334.4,67.9c0,0,0.1-0.1,0.1-0.1c2.9-2.9,6.5-4.4,10.7-4.4s7.7,1.5,10.7,4.4c2.9,2.9,4.4,6.5,4.4,10.7
					c0,4.2-1.5,7.7-4.4,10.7c-2.9,2.9-6.5,4.4-10.7,4.4s-7.7-1.5-10.7-4.4c-2.9-2.9-4.4-6.5-4.4-10.7V52.6c0-0.6,0.2-1.1,0.6-1.5
					c0.4-0.4,0.9-0.6,1.5-0.6s1.1,0.2,1.5,0.6c0.4,0.4,0.6,0.9,0.6,1.5V67.9z M345.2,89.3c3,0,5.5-1.1,7.6-3.1
					c2.1-2.1,3.1-4.6,3.1-7.6c0-3-1.1-5.5-3.1-7.6c-2.1-2.1-4.6-3.1-7.6-3.1s-5.5,1.1-7.6,3.1c-2.1,2.1-3.1,4.6-3.1,7.6
					c0,3,1.1,5.5,3.1,7.6C339.6,88.2,342.2,89.3,345.2,89.3z"/>
				<path class="st1" d="M392.5,91.4c0,0.6-0.2,1.1-0.6,1.5c-0.4,0.4-0.9,0.6-1.5,0.6s-1.1-0.2-1.5-0.6c-0.4-0.4-0.6-0.9-0.6-1.5
					v-1.7c-2.7,2.6-5.9,3.9-9.7,3.9c-3.9,0-7.2-1.4-9.9-4.1c-2.7-2.7-4.1-6-4.1-9.9v-14c0-0.6,0.2-1.1,0.6-1.5
					c0.4-0.4,0.9-0.6,1.5-0.6c0.6,0,1.1,0.2,1.5,0.6c0.4,0.4,0.6,0.9,0.6,1.5v14c0,2.7,0.9,5,2.8,6.9c1.9,1.9,4.2,2.8,6.9,2.8
					c2.7,0,5-0.9,6.9-2.8c1.9-1.9,2.8-4.2,2.8-6.9v-14c0-0.6,0.2-1.1,0.6-1.5c0.4-0.4,0.9-0.6,1.5-0.6s1.1,0.2,1.5,0.6
					c0.4,0.4,0.6,0.9,0.6,1.5V91.4z"/>
				<path class="st1" d="M403.9,57c0,0.7-0.3,1.4-0.8,1.9c-0.5,0.5-1.2,0.8-1.9,0.8s-1.4-0.3-1.9-0.8c-0.5-0.5-0.8-1.2-0.8-1.9
					c0-0.7,0.3-1.4,0.8-1.9c0.5-0.5,1.2-0.8,1.9-0.8s1.4,0.3,1.9,0.8C403.6,55.6,403.9,56.2,403.9,57z M399,65.6
					c0-0.6,0.2-1.1,0.6-1.5c0.4-0.4,0.9-0.6,1.5-0.6c0.6,0,1.1,0.2,1.5,0.6c0.4,0.4,0.6,0.9,0.6,1.5v25.8c0,0.6-0.2,1.1-0.6,1.5
					c-0.4,0.4-0.9,0.6-1.5,0.6c-0.6,0-1.1-0.2-1.5-0.6c-0.4-0.4-0.6-0.9-0.6-1.5V65.6z"/>
				<path class="st1" d="M409.8,52.6c0-0.6,0.2-1.1,0.6-1.5c0.4-0.4,0.9-0.6,1.5-0.6c0.6,0,1.1,0.2,1.5,0.6c0.4,0.4,0.6,0.9,0.6,1.5
					v36.6h2.2c0.6,0,1.1,0.2,1.5,0.6c0.4,0.4,0.6,0.9,0.6,1.5s-0.2,1.1-0.6,1.5c-0.4,0.4-0.9,0.6-1.5,0.6h-4.3
					c-0.6,0-1.1-0.2-1.5-0.6c-0.4-0.4-0.6-0.9-0.6-1.5V52.6z"/>
				<path class="st1" d="M448.5,52.6c0-0.6,0.2-1.1,0.6-1.5c0.4-0.4,0.9-0.6,1.5-0.6s1.1,0.2,1.5,0.6c0.4,0.4,0.6,0.9,0.6,1.5v25.9
					c0,4.2-1.5,7.7-4.4,10.7c-2.9,2.9-6.5,4.4-10.7,4.4s-7.7-1.5-10.7-4.4c-2.9-2.9-4.4-6.5-4.4-10.7c0-4.2,1.5-7.7,4.4-10.7
					c2.9-2.9,6.5-4.4,10.7-4.4s7.7,1.5,10.7,4.4c0,0,0.1,0.1,0.1,0.1V52.6z M448.5,78.5c0-3-1.1-5.5-3.1-7.6
					c-2.1-2.1-4.6-3.1-7.6-3.1s-5.5,1.1-7.6,3.1c-2.1,2.1-3.1,4.6-3.1,7.6c0,3,1.1,5.5,3.1,7.6c2.1,2.1,4.6,3.1,7.6,3.1
					s5.5-1.1,7.6-3.1C447.5,84,448.5,81.5,448.5,78.5z"/>
				<path class="st1" d="M480.5,86.2c0.6,0,1.1,0.2,1.5,0.6c0.4,0.4,0.6,0.9,0.6,1.5s-0.2,1.1-0.6,1.5c-2.8,2.4-6.1,3.6-9.8,3.6
					c-4.2,0-7.7-1.5-10.7-4.4c-2.9-2.9-4.4-6.5-4.4-10.7c0-4.2,1.5-7.7,4.4-10.7c2.9-2.9,6.5-4.4,10.7-4.4c4.2,0,7.7,1.5,10.7,4.4
					c2.9,2.9,4.4,6.5,4.4,10.7c0,0.6-0.2,1.1-0.6,1.5c-0.4,0.4-0.9,0.6-1.5,0.6h-23.5c0.4,2.1,1.4,3.9,3,5.5
					c2.1,2.1,4.6,3.1,7.6,3.1c2.7,0,5-0.9,6.9-2.6C479.6,86.4,480,86.2,480.5,86.2z M482.8,76.3c-0.4-2.1-1.4-3.9-3-5.5
					c-2.1-2.1-4.6-3.1-7.6-3.1c-3,0-5.5,1.1-7.6,3.1c-1.6,1.6-2.6,3.4-3,5.5H482.8z"/>
				<path class="st1" d="M491.6,65.6c0-0.6,0.2-1.1,0.6-1.5c0.4-0.4,0.9-0.6,1.5-0.6s1.1,0.2,1.5,0.6c0.4,0.4,0.6,0.9,0.6,1.5v2.4
					c3-3,6.6-4.5,10.8-4.5c2.1,0,4,0.4,5.8,1.1c0.3,0.1,0.6,0.3,0.9,0.6c0.4,0.4,0.6,0.9,0.6,1.5s-0.2,1.1-0.6,1.5
					c-0.4,0.4-0.9,0.6-1.5,0.6c-0.3,0-0.7-0.1-0.9-0.2c-1.3-0.5-2.7-0.8-4.2-0.8c-3,0-5.5,1.1-7.6,3.1c-2.1,2.1-3.1,4.6-3.1,7.6
					v12.9c0,0.6-0.2,1.1-0.6,1.5c-0.4,0.4-0.9,0.6-1.5,0.6s-1.1-0.2-1.5-0.6c-0.4-0.4-0.6-0.9-0.6-1.5V65.6z"/>
			</g>
		</g>
	</g>
</g>
</svg>
