<svg id="Calque_1" data-name="Calque 1" xmlns="http://www.w3.org/2000/svg" xmlns:xlink="http://www.w3.org/1999/xlink" viewBox="0 0 772 250"><defs><style>.cls-1,.cls-12{fill:none;}.cls-2{clip-path:url(#clip-path);}.cls-13,.cls-14,.cls-3,.cls-9{fill:#29498e;}.cls-4{fill:#053c49;opacity:0.2;}.cls-5{fill:#e6e8e8;}.cls-6,.cls-8{fill:#fff;}.cls-7{fill:#ccc;}.cls-8{opacity:0.71;}.cls-9{opacity:0.15;}.cls-10{fill:#c9c9c9;}.cls-10,.cls-13,.cls-26{opacity:0.6;}.cls-11{fill:#bec8dc;}.cls-12{stroke:#fff;stroke-linecap:round;stroke-linejoin:round;stroke-width:1.5px;}.cls-14{opacity:0.3;}.cls-15{fill:#cecece;}.cls-16{opacity:0.7;}.cls-17{opacity:0.8;}.cls-18{fill:#666;opacity:0.5;}.cls-19{fill:#8c8c8c;}.cls-20{fill:#d8927a;}.cls-21{fill:#f3bc96;}.cls-22{fill:#4a230e;}.cls-23{fill:#010000;}.cls-24{fill:#030000;}.cls-25{fill:#1d1719;}</style><clipPath id="clip-path"><rect class="cls-1" width="772" height="250"/></clipPath></defs><title>Nimble_bandeau-bleu_772x250</title><g class="cls-2"><rect class="cls-3" width="772" height="250"/><path class="cls-4" d="M733.84,36h-387a2.46,2.46,0,0,0-2.47,2.45V57.53h96.89V312h295V38.45A2.46,2.46,0,0,0,733.84,36Z"/><path class="cls-5" d="M730.31,289a2.86,2.86,0,0,1-2.74,3H341.16a2.86,2.86,0,0,1-2.74-3V40.53H730.31Z"/><rect class="cls-6" x="433.58" y="41" width="296.72" height="256"/><path class="cls-7" d="M730.31,41.25H338.42v-8.8A2.46,2.46,0,0,1,340.89,30h387a2.46,2.46,0,0,1,2.47,2.45Z"/><path class="cls-8" d="M347.13,36.12a2.31,2.31,0,1,1-2.31-2.31A2.3,2.3,0,0,1,347.13,36.12Z"/><circle class="cls-8" cx="352.36" cy="36.12" r="2.3"/><path class="cls-8" d="M362.21,36.12a2.31,2.31,0,1,1-2.31-2.31A2.3,2.3,0,0,1,362.21,36.12Z"/><rect class="cls-9" x="439.58" y="61.25" width="284.72" height="82"/><rect class="cls-9" x="439.58" y="47.25" width="57.86" height="8"/><rect class="cls-9" x="691.51" y="49.25" width="32.86" height="4"/><rect class="cls-9" x="650.51" y="49.25" width="32.86" height="4"/><rect class="cls-9" x="609.51" y="49.25" width="32.86" height="4"/><rect class="cls-9" x="568.51" y="49.25" width="32.86" height="4"/><rect class="cls-10" x="344.42" y="91.9" width="83.17" height="38.65"/><rect class="cls-10" x="344.42" y="181.2" width="83.17" height="38.65"/><rect class="cls-10" x="344.42" y="225.85" width="83.17" height="38.65"/><rect class="cls-11" x="344.42" y="136.55" width="83.17" height="38.65"/><rect class="cls-10" x="344.42" y="47.25" width="83.17" height="38.65"/><line class="cls-12" x1="708.94" y1="94.88" x2="714.94" y2="100.88"/><line class="cls-12" x1="708.94" y1="107.13" x2="714.94" y2="101.13"/><line class="cls-12" x1="457.94" y1="94.88" x2="451.94" y2="100.87"/><line class="cls-12" x1="457.94" y1="107.12" x2="451.94" y2="101.12"/><rect class="cls-11" x="440.75" y="149.93" width="282.38" height="113.62"/><path class="cls-3" d="M440.76,254.47a1.18,1.18,0,0,1-1.18-1.17V251a1.18,1.18,0,1,1,2.35,0v2.27A1.18,1.18,0,0,1,440.76,254.47Zm0-11.36a1.17,1.17,0,0,1-1.18-1.17v-2.27a1.18,1.18,0,0,1,2.35,0v2.27A1.17,1.17,0,0,1,440.76,243.11Zm0-11.35a1.18,1.18,0,0,1-1.18-1.17v-2.27a1.18,1.18,0,1,1,2.35,0v2.27A1.18,1.18,0,0,1,440.76,231.76Zm0-11.36a1.17,1.17,0,0,1-1.18-1.17V217a1.18,1.18,0,0,1,2.35,0v2.27A1.17,1.17,0,0,1,440.76,220.4Zm0-22.7a1.18,1.18,0,0,1-1.18-1.18v-2.27a1.18,1.18,0,0,1,2.35,0v2.27A1.18,1.18,0,0,1,440.76,197.7Zm0-11.36a1.17,1.17,0,0,1-1.18-1.17V182.9a1.18,1.18,0,0,1,2.35,0v2.27A1.17,1.17,0,0,1,440.76,186.34Zm0-11.35a1.18,1.18,0,0,1-1.18-1.18v-2.27a1.18,1.18,0,0,1,2.35,0v2.27A1.18,1.18,0,0,1,440.76,175Zm0-11.36a1.17,1.17,0,0,1-1.18-1.17v-2.27a1.18,1.18,0,0,1,2.35,0v2.27A1.17,1.17,0,0,1,440.76,163.63Z"/><path class="cls-3" d="M440.76,152.28a1.18,1.18,0,0,1-1.18-1.17v-1.18a1.18,1.18,0,0,1,1.18-1.17h1.17a1.18,1.18,0,0,1,1.17,1.17,1.17,1.17,0,0,1-1.17,1.17h0A1.18,1.18,0,0,1,440.76,152.28Z"/><path class="cls-3" d="M712.55,151.1h-2.36a1.17,1.17,0,0,1,0-2.34h2.36a1.17,1.17,0,1,1,0,2.34Zm-11.77,0h-2.35a1.17,1.17,0,1,1,0-2.34h2.35a1.17,1.17,0,1,1,0,2.34Zm-11.76,0h-2.36a1.17,1.17,0,1,1,0-2.34H689a1.17,1.17,0,1,1,0,2.34Zm-11.77,0H674.9a1.17,1.17,0,1,1,0-2.34h2.35a1.17,1.17,0,0,1,0,2.34Zm-11.77,0h-2.35a1.17,1.17,0,1,1,0-2.34h2.35a1.17,1.17,0,1,1,0,2.34Zm-11.76,0h-2.36a1.17,1.17,0,1,1,0-2.34h2.36a1.17,1.17,0,0,1,0,2.34Zm-11.77,0H639.6a1.17,1.17,0,1,1,0-2.34H642a1.17,1.17,0,0,1,0,2.34Zm-11.76,0h-2.36a1.17,1.17,0,1,1,0-2.34h2.36a1.17,1.17,0,0,1,0,2.34Zm-11.77,0h-2.35a1.17,1.17,0,1,1,0-2.34h2.35a1.17,1.17,0,1,1,0,2.34Zm-11.77,0H604.3a1.17,1.17,0,1,1,0-2.34h2.35a1.17,1.17,0,1,1,0,2.34Zm-11.76,0h-2.36a1.17,1.17,0,1,1,0-2.34h2.36a1.17,1.17,0,0,1,0,2.34Zm-11.77,0h-2.35a1.17,1.17,0,1,1,0-2.34h2.35a1.17,1.17,0,0,1,0,2.34Zm-11.77,0H569a1.17,1.17,0,1,1,0-2.34h2.35a1.17,1.17,0,1,1,0,2.34Zm-11.76,0h-2.36a1.17,1.17,0,1,1,0-2.34h2.36a1.17,1.17,0,0,1,0,2.34Zm-11.77,0h-2.35a1.17,1.17,0,1,1,0-2.34h2.35a1.17,1.17,0,0,1,0,2.34Zm-11.76,0H533.7a1.17,1.17,0,1,1,0-2.34h2.36a1.17,1.17,0,1,1,0,2.34Zm-11.77,0h-2.35a1.17,1.17,0,1,1,0-2.34h2.35a1.17,1.17,0,1,1,0,2.34Zm-11.77,0h-2.35a1.17,1.17,0,0,1,0-2.34h2.35a1.17,1.17,0,1,1,0,2.34Zm-11.76,0H498.4a1.17,1.17,0,1,1,0-2.34h2.36a1.17,1.17,0,1,1,0,2.34Zm-23.53,0h-2.36a1.17,1.17,0,0,1,0-2.34h2.36a1.17,1.17,0,0,1,0,2.34Zm-11.77,0h-2.35a1.17,1.17,0,1,1,0-2.34h2.35a1.17,1.17,0,1,1,0,2.34Zm-11.77,0h-2.35a1.17,1.17,0,1,1,0-2.34h2.35a1.17,1.17,0,1,1,0,2.34Z"/><path class="cls-3" d="M723.13,152.28a1.18,1.18,0,0,1-1.17-1.17h0a1.17,1.17,0,0,1-1.17-1.17,1.18,1.18,0,0,1,1.17-1.17h1.17a1.18,1.18,0,0,1,1.18,1.17v1.18A1.18,1.18,0,0,1,723.13,152.28Z"/><path class="cls-3" d="M723.13,254.47A1.18,1.18,0,0,1,722,253.3V251a1.18,1.18,0,1,1,2.35,0v2.27A1.18,1.18,0,0,1,723.13,254.47Zm0-11.36a1.17,1.17,0,0,1-1.17-1.17v-2.27a1.18,1.18,0,0,1,2.35,0v2.27A1.17,1.17,0,0,1,723.13,243.11Zm0-11.35a1.18,1.18,0,0,1-1.17-1.17v-2.27a1.18,1.18,0,0,1,2.35,0v2.27A1.18,1.18,0,0,1,723.13,231.76Zm0-11.35a1.18,1.18,0,0,1-1.17-1.18V217a1.18,1.18,0,0,1,2.35,0v2.27A1.18,1.18,0,0,1,723.13,220.41Zm0-11.36a1.17,1.17,0,0,1-1.17-1.17v-2.27a1.18,1.18,0,0,1,2.35,0v2.27A1.17,1.17,0,0,1,723.13,209.05Zm0-11.35a1.18,1.18,0,0,1-1.17-1.18v-2.27a1.18,1.18,0,0,1,2.35,0v2.27A1.18,1.18,0,0,1,723.13,197.7Zm0-11.36a1.17,1.17,0,0,1-1.17-1.17V182.9a1.18,1.18,0,0,1,2.35,0v2.27A1.17,1.17,0,0,1,723.13,186.34Zm0-11.35a1.18,1.18,0,0,1-1.17-1.18v-2.27a1.18,1.18,0,0,1,2.35,0v2.27A1.18,1.18,0,0,1,723.13,175Zm0-11.36a1.17,1.17,0,0,1-1.17-1.17v-2.27a1.18,1.18,0,0,1,2.35,0v2.27A1.17,1.17,0,0,1,723.13,163.63Z"/><path class="cls-13" d="M440.76,209.05a1.17,1.17,0,0,1-1.18-1.17v-2.27a1.18,1.18,0,0,1,2.35,0v2.27A1.17,1.17,0,0,1,440.76,209.05Z"/><path class="cls-13" d="M488.22,151.12h-2.37a1.18,1.18,0,1,1,0-2.36h2.37a1.18,1.18,0,0,1,0,2.36Z"/><rect class="cls-14" x="360.31" y="143" width="124.66" height="64.68"/><rect class="cls-6" x="366.31" y="148.18" width="112.59" height="53.32"/><rect class="cls-15" x="372.61" y="180.67" width="29.99" height="1.8"/><rect class="cls-15" x="372.61" y="184.8" width="29.99" height="1.8"/><rect class="cls-15" x="372.61" y="188.94" width="15.1" height="1.8"/><rect class="cls-3" x="372.48" y="159.95" width="29.78" height="17.6" rx="1.41"/><g class="cls-16"><polygon class="cls-6" points="379.35 170.09 372.48 177.39 386.22 177.39 379.35 170.09"/><path class="cls-6" d="M386.22,177.54H372.48a.14.14,0,0,1-.14-.09.12.12,0,0,1,0-.16l6.87-7.3a.16.16,0,0,1,.22,0l6.87,7.3a.14.14,0,0,1,0,.16A.14.14,0,0,1,386.22,177.54Zm-13.4-.3h13.06l-6.53-6.93Z"/></g><g class="cls-17"><polygon class="cls-6" points="392.26 166.78 382.26 177.39 402.26 177.39 392.26 166.78"/><path class="cls-6" d="M402.26,177.54h-20a.15.15,0,0,1-.14-.09.16.16,0,0,1,0-.16l10-10.62a.16.16,0,0,1,.22,0l10,10.62a.14.14,0,0,1,0,.16A.13.13,0,0,1,402.26,177.54Zm-19.65-.3h19.3L392.26,167Z"/></g><circle class="cls-6" cx="377.21" cy="164.68" r="2.03"/><rect class="cls-15" x="407.76" y="180.67" width="29.99" height="1.8"/><rect class="cls-15" x="407.76" y="184.8" width="29.99" height="1.8"/><rect class="cls-15" x="407.76" y="188.94" width="15.1" height="1.8"/><rect class="cls-3" x="407.62" y="159.95" width="29.78" height="17.6" rx="1.41"/><g class="cls-16"><polygon class="cls-6" points="414.5 170.09 407.63 177.39 421.37 177.39 414.5 170.09"/><path class="cls-6" d="M421.37,177.54H407.62a.13.13,0,0,1-.13-.09.12.12,0,0,1,0-.16l6.87-7.3a.16.16,0,0,1,.22,0l6.87,7.3a.16.16,0,0,1,0,.16A.14.14,0,0,1,421.37,177.54Zm-13.4-.3h13l-6.52-6.93Z"/></g><g class="cls-17"><polygon class="cls-6" points="427.41 166.78 417.41 177.39 437.4 177.39 427.41 166.78"/><path class="cls-6" d="M437.41,177.54h-20a.15.15,0,0,1-.14-.09.16.16,0,0,1,0-.16l10-10.62a.16.16,0,0,1,.22,0l10,10.62a.14.14,0,0,1,0,.16A.13.13,0,0,1,437.41,177.54Zm-19.65-.3h19.3L427.41,167Z"/></g><circle class="cls-6" cx="412.36" cy="164.68" r="2.03"/><rect class="cls-15" x="442.9" y="180.67" width="29.99" height="1.8"/><rect class="cls-15" x="442.9" y="184.8" width="29.99" height="1.8"/><rect class="cls-15" x="442.9" y="188.94" width="15.1" height="1.8"/><rect class="cls-3" x="442.77" y="159.95" width="29.78" height="17.6" rx="1.41"/><g class="cls-16"><polygon class="cls-6" points="449.65 170.09 442.77 177.39 456.52 177.39 449.65 170.09"/><path class="cls-6" d="M456.52,177.54H442.77a.13.13,0,0,1-.13-.09.14.14,0,0,1,0-.16l6.88-7.3a.16.16,0,0,1,.22,0l6.87,7.3a.16.16,0,0,1,0,.16A.14.14,0,0,1,456.52,177.54Zm-13.4-.3h13.05l-6.52-6.93Z"/></g><g class="cls-17"><polygon class="cls-6" points="462.56 166.78 452.56 177.39 472.56 177.39 462.56 166.78"/><path class="cls-6" d="M472.55,177.54h-20a.15.15,0,0,1-.14-.09.16.16,0,0,1,0-.16l10-10.62a.16.16,0,0,1,.22,0l10,10.62a.12.12,0,0,1,0,.16A.14.14,0,0,1,472.55,177.54Zm-19.64-.3h19.3L462.56,167Z"/></g><circle class="cls-6" cx="447.51" cy="164.68" r="2.03"/><polygon class="cls-18" points="484.97 148 484.97 207.6 366.31 207.6 366.31 213.68 484.97 213.68 491.05 213.68 491.05 148 484.97 148"/><path class="cls-19" d="M485.06,217h-5.4a4.93,4.93,0,0,1-4.93-4.93v-2L473,208.36a2.5,2.5,0,0,1,0-3.51,2.53,2.53,0,0,1,1.34-.7,2.48,2.48,0,0,1,3.16-3.61,2.44,2.44,0,0,1,.71-1.44,2.48,2.48,0,0,0,4.1-1.37,2.49,2.49,0,0,1,3.52,0l5.45,5.45a7.17,7.17,0,0,1,0,10.12l-1.94,1.94A6,6,0,0,1,485.06,217Zm-9.23-5.8v.87a3.84,3.84,0,0,0,3.83,3.83h5.4a4.93,4.93,0,0,0,3.49-1.44l1.93-1.94a6,6,0,0,0,0-8.57L485,198.5a1.43,1.43,0,0,0-2,0,1.4,1.4,0,0,0,0,2l.26.26a.54.54,0,0,1,.16.39.51.51,0,0,1-.16.38.53.53,0,0,1-.77,0l-1.63-1.63a1.4,1.4,0,0,0-2,0,1.38,1.38,0,0,0,0,2l1.63,1.64a.54.54,0,0,1,.16.39.51.51,0,0,1-.16.38.53.53,0,0,1-.77,0l-2.45-2.45a1.39,1.39,0,1,0-2,2l2.46,2.46a.55.55,0,0,1,.16.38.59.59,0,0,1-.16.39.54.54,0,0,1-.78,0l-1.36-1.36a1.43,1.43,0,0,0-2,0,1.39,1.39,0,0,0-.41,1,1.43,1.43,0,0,0,.41,1l4.1,4.09a.56.56,0,0,1,0,.78.56.56,0,0,1-.78,0Z"/><path class="cls-6" d="M475.83,211.2v.87a3.84,3.84,0,0,0,3.83,3.83h5.4a4.93,4.93,0,0,0,3.49-1.44l1.93-1.94a6,6,0,0,0,0-8.57L485,198.5a1.43,1.43,0,0,0-2,0,1.4,1.4,0,0,0,0,2l.26.26a.54.54,0,0,1,.16.39.51.51,0,0,1-.16.38.53.53,0,0,1-.77,0l-1.63-1.63a1.4,1.4,0,0,0-2,0,1.38,1.38,0,0,0,0,2l1.63,1.64a.54.54,0,0,1,.16.39.51.51,0,0,1-.16.38.53.53,0,0,1-.77,0l-2.45-2.45a1.39,1.39,0,1,0-2,2l2.46,2.46a.55.55,0,0,1,.16.38.59.59,0,0,1-.16.39.54.54,0,0,1-.78,0l-1.36-1.36a1.43,1.43,0,0,0-2,0,1.39,1.39,0,0,0-.41,1,1.43,1.43,0,0,0,.41,1l4.1,4.09a.56.56,0,0,1,0,.78.56.56,0,0,1-.78,0Z"/></g><path class="cls-6" d="M137.37,130.63a34,34,0,1,1-34-34,34,34,0,0,1,34,34"/><path class="cls-20" d="M83.31,134.38c-1.7.44-4.09-1.36-4.78-4s.14-5.17,1.84-5.61"/><path class="cls-20" d="M123.38,134.38c1.71.44,4.09-1.36,4.78-4s-.13-5.17-1.83-5.61"/><path class="cls-21" d="M103.36,147.31a39.93,39.93,0,0,1-6.4-.52c-9.45-1.11-13.06-10.49-15.81-17.66a17.68,17.68,0,0,1-.76-2.89,18,18,0,0,1-.07-3.83c0-12,8.18-18.73,23-19.71h0c14.85,1,23,7.74,23,19.71a18,18,0,0,1-.07,3.83,18.76,18.76,0,0,1-.76,2.89c-2.75,7.17-6.37,16.55-15.81,17.66a40.06,40.06,0,0,1-6.4.52v0"/><path class="cls-22" d="M123.63,131.83s-.65-8-.65-10.47a72.64,72.64,0,0,1,.85-8.72l3.55,6.8s-.9,11.38-3.75,12.39"/><path class="cls-23" d="M112.41,125.43a6.8,6.8,0,1,1,6.8-6.8,6.81,6.81,0,0,1-6.8,6.8m0-12.74a5.95,5.95,0,1,0,5.94,5.94,5.95,5.95,0,0,0-5.94-5.94"/><path class="cls-24" d="M119,119.06c2.67.88,1.86,4.11,2.73,6.15a6.79,6.79,0,0,0,3.66,3.62c.38.16.55-.47.17-.62a6.12,6.12,0,0,1-3.43-3.76c-.3-1-.22-2-.48-3a3.85,3.85,0,0,0-2.48-3c-.39-.13-.56.49-.17.62"/><path class="cls-25" d="M104.14,125.6a1.05,1.05,0,0,1-1.64.1c-.47-.52-1.23.25-.77.77a2.15,2.15,0,0,0,3.35-.32c.37-.59-.57-1.14-.94-.55"/><path class="cls-23" d="M102.77,151.44c-1.12.75-.85,4.63,1.21,4.4,2.61-.29,1.76-6.39-1.21-4.4"/><path class="cls-23" d="M103.81,156.06a1.82,1.82,0,0,1-1.67-1.38c-.42-1.17-.3-2.88.51-3.42l.12.18-.12-.18a1.73,1.73,0,0,1,2.1-.15,3.36,3.36,0,0,1,.89,3.33,2,2,0,0,1-1.63,1.61h-.2m.08-4.81a1.83,1.83,0,0,0-1,.36c-.57.38-.74,1.86-.35,2.93a1.4,1.4,0,0,0,1.42,1.09,1.58,1.58,0,0,0,1.27-1.3,2.91,2.91,0,0,0-.73-2.88,1,1,0,0,0-.61-.2"/><path class="cls-22" d="M89,106.31s14.41,2.9,21.09,3.16a106,106,0,0,0,11.42,0s-14.68-10-32.51-3.18"/><path class="cls-22" d="M103.27,129.73a2.83,2.83,0,0,0-2.88-.83c-2,.39-6.39,3.36-6.39,3.36s-2.92,1.94-2.93-.82a1.38,1.38,0,0,1,1.13-1.55,3.21,3.21,0,0,1,1.16.05,1.77,1.77,0,0,0-2.2-.47c-2.12.8-3.4,7,2.72,7.47a11.27,11.27,0,0,0,6.38-1.62,34.14,34.14,0,0,0,3-1.72Z"/><path class="cls-22" d="M94.63,137.18l-.77,0c-3.73-.27-4.47-2.61-4.62-3.61-.26-1.8.6-3.8,1.84-4.27a2,2,0,0,1,2.46.55.21.21,0,0,1,0,.24.23.23,0,0,1-.23.09,2.79,2.79,0,0,0-1.07-.05,1.18,1.18,0,0,0-1,1.34c0,.62.16,1,.46,1.18.62.32,1.75-.28,2.14-.54.18-.12,4.43-3,6.47-3.39a3,3,0,0,1,3.09.92.28.28,0,0,1,0,.12v3.87a.21.21,0,0,1-.1.18s-1.64,1.05-3,1.73l-.41.2a11,11,0,0,1-5.31,1.47M92,129.51a2.13,2.13,0,0,0-.79.16c-1,.36-1.83,2.07-1.57,3.81.16,1.11.93,3,4.23,3.25a10.48,10.48,0,0,0,5.86-1.39l.41-.21c1.18-.57,2.53-1.41,2.9-1.64v-3.68a2.66,2.66,0,0,0-2.63-.7c-2,.37-6.27,3.29-6.32,3.32s-1.61,1.06-2.56.56a1.59,1.59,0,0,1-.69-1.55,1.61,1.61,0,0,1,1.3-1.76,2.22,2.22,0,0,1,.51,0,1.53,1.53,0,0,0-.65-.14"/><path class="cls-22" d="M103.45,129.73a2.83,2.83,0,0,1,2.88-.83c2,.39,6.39,3.36,6.39,3.36s2.91,1.94,2.93-.82a1.38,1.38,0,0,0-1.13-1.55,3.21,3.21,0,0,0-1.16.05,1.77,1.77,0,0,1,2.2-.47c2.11.8,3.4,7-2.72,7.47a11.27,11.27,0,0,1-6.38-1.62,34.14,34.14,0,0,1-3-1.72Z"/><path class="cls-22" d="M112.09,137.18a11.08,11.08,0,0,1-5.32-1.47l-.4-.2a33.68,33.68,0,0,1-3-1.73.19.19,0,0,1-.1-.18v-3.87a.28.28,0,0,1,0-.12,3,3,0,0,1,3.09-.92c2,.39,6.29,3.27,6.47,3.39.39.26,1.53.86,2.14.54.3-.17.46-.56.46-1.18a1.18,1.18,0,0,0-1-1.34,2.85,2.85,0,0,0-1.08.05.22.22,0,0,1-.22-.09.21.21,0,0,1,0-.24,2,2,0,0,1,2.46-.55c1.24.47,2.1,2.47,1.84,4.27-.15,1-.89,3.34-4.62,3.61l-.77,0m-8.43-3.69c.37.23,1.72,1.07,2.89,1.64l.41.21a10.52,10.52,0,0,0,5.87,1.39c3.3-.24,4.07-2.14,4.23-3.25.25-1.75-.62-3.45-1.57-3.81a1.82,1.82,0,0,0-1.44,0,2.1,2.1,0,0,1,.5,0,1.61,1.61,0,0,1,1.31,1.76,1.59,1.59,0,0,1-.69,1.55c-1,.51-2.5-.51-2.56-.56s-4.37-3-6.32-3.32a2.68,2.68,0,0,0-2.63.7Z"/><path class="cls-23" d="M103.83,153.19,95,148.25c-.66-.37-1.6-.7-2.09-.12a1.77,1.77,0,0,0-.26,1.05,37.8,37.8,0,0,0-.28,6,3.94,3.94,0,0,0,.6,2.31c1,1.08,2.66.28,4-.37,1.83-.92,4.42-2.18,6.22-3.18"/><path class="cls-23" d="M104.36,152.28,98.46,149c-1.34-.75-3-2.13-4.59-2.21-3-.17-2.55,4.51-2.61,6.46-.08,2.39,0,5.92,3.24,5.79,1.44-.06,2.86-1,4.11-1.62,1.69-.84,3.38-1.68,5-2.58,1.19-.66.13-2.48-1.06-1.83-1.76,1-3.56,1.85-5.35,2.74-1,.49-2.92,1.82-3.74.35-.44-.76-.15-2.71-.1-3.55s-.1-2.32.25-2.95.65-.43,1.54,0c.5.23,1,.55,1.47.82l6.63,3.71a1.06,1.06,0,0,0,1.07-1.82"/><path class="cls-23" d="M103.83,153.19l8.84-4.94c.67-.37,1.6-.7,2.09-.12a1.78,1.78,0,0,1,.27,1.05,40.35,40.35,0,0,1,.28,6,4,4,0,0,1-.61,2.31c-1,1.08-2.66.28-4-.37-1.82-.92-4.42-2.18-6.22-3.18"/><path class="cls-23" d="M104.36,154.1l6.26-3.5c.49-.27,2.71-1.94,3.35-1.43.31.25.26,3,.28,3.37a8.38,8.38,0,0,1,0,3.08c-.69,1.75-2.19.92-3.5.27-1.89-.94-3.79-1.87-5.64-2.89-1.19-.65-2.26,1.17-1.07,1.83,1.66.9,3.35,1.74,5,2.58,1.25.63,2.68,1.56,4.11,1.62,3.22.13,3.32-3.4,3.24-5.79-.06-2,.43-6.63-2.61-6.46-1.6.08-3.25,1.46-4.59,2.21l-5.9,3.29a1.06,1.06,0,0,0,1.07,1.82"/><path class="cls-23" d="M94.37,116.35c-2.32,0-3.67,3.34-3.67,3.34,1.72-1.85,2.64-2.51,3.68-2.51s2,.66,3.72,2.51c0,0-1.35-3.33-3.67-3.34h-.06Z"/><path class="cls-23" d="M98.1,120.31a.61.61,0,0,1-.45-.2c-1.59-1.7-2.44-2.31-3.27-2.31s-1.62.58-3.22,2.31a.62.62,0,0,1-1-.65c.06-.15,1.54-3.72,4.24-3.72h.06c2.7,0,4.18,3.57,4.24,3.72a.62.62,0,0,1-.24.75.67.67,0,0,1-.33.1"/><path class="cls-23" d="M112.29,116.35c-2.32,0-3.67,3.34-3.67,3.34,1.72-1.85,2.64-2.51,3.68-2.51s2,.66,3.72,2.51c0,0-1.36-3.33-3.68-3.34h0Z"/><path class="cls-23" d="M108.62,120.31a.67.67,0,0,1-.33-.1.62.62,0,0,1-.24-.75c.06-.15,1.54-3.72,4.24-3.72h.06c2.7,0,4.18,3.56,4.24,3.72a.62.62,0,0,1-1,.65c-1.58-1.7-2.43-2.31-3.26-2.31s-1.62.58-3.23,2.31a.61.61,0,0,1-.45.2"/><path class="cls-22" d="M83.12,131.83s.64-8,.64-10.47a72.64,72.64,0,0,0-.85-8.72l-3.54,6.8s.9,11.38,3.75,12.39"/><path class="cls-23" d="M102.79,105.46H104c11.23-.26,17.67,4.45,19.88,7.18a15,15,0,0,1,3.28,7.38,18.53,18.53,0,0,1-.05,4.46s15.32-12.08-3.29-20.47c-1.79-8.13-4-17.33-19-18L104,86h-1.23l-.87,0c-15,.63-17.16,9.83-19,18-18.61,8.39-3.29,20.47-3.29,20.47A18.53,18.53,0,0,1,79.6,120a15,15,0,0,1,3.28-7.38c2.21-2.73,8.65-7.44,19.88-7.18H104"/><path class="cls-23" d="M79.65,125.13a.62.62,0,0,1-.41-.14c-.28-.22-6.88-5.5-6.11-11.74.46-3.82,3.58-7.08,9.24-9.69,1.74-7.89,4.06-17.51,19.49-18.16l.89,0H104c.3,0,.6,0,.9,0,15.43.65,17.75,10.27,19.49,18.16,5.66,2.61,8.78,5.87,9.24,9.69.77,6.24-5.83,11.52-6.11,11.74a.65.65,0,0,1-.73.06.66.66,0,0,1-.32-.66,18.44,18.44,0,0,0,.05-4.28,14.33,14.33,0,0,0-3.15-7.06c-.6-.74-6.22-7.24-19.36-6.94h-1.24c-13.15-.29-18.77,6.2-19.37,6.94a14.33,14.33,0,0,0-3.15,7.06,18.44,18.44,0,0,0,.05,4.28.66.66,0,0,1-.32.66.72.72,0,0,1-.32.08m25.19-20.34c10,0,16.73,4,19.53,7.44a15.51,15.51,0,0,1,3.43,7.71,16.54,16.54,0,0,1,.1,2.94c1.8-1.78,4.92-5.5,4.43-9.48-.42-3.39-3.38-6.35-8.79-8.79a.64.64,0,0,1-.37-.46c-1.73-7.89-3.7-16.83-18.34-17.45l-.86,0h-1.21l-.84,0c-14.64.62-16.61,9.56-18.34,17.45a.64.64,0,0,1-.37.46c-5.41,2.44-8.37,5.4-8.79,8.79-.49,4,2.63,7.7,4.43,9.48a16.54,16.54,0,0,1,.1-2.94,15.51,15.51,0,0,1,3.43-7.71c2.88-3.57,10-7.65,20.4-7.43h2.06"/><path class="cls-6" d="M157.1,104.57a9.06,9.06,0,0,1,5.68-1.87,8.93,8.93,0,0,1,3.62.75,9.76,9.76,0,0,1,3,2,9.46,9.46,0,0,1,2.07,3,9.07,9.07,0,0,1,.77,3.69v9a1.84,1.84,0,0,1-.56,1.35,1.8,1.8,0,0,1-1.33.55,1.89,1.89,0,0,1-1.91-1.9v-9A5.43,5.43,0,0,0,168,110a5.71,5.71,0,0,0-3-3,5.66,5.66,0,0,0-4.4,0,5.68,5.68,0,0,0-3,3,5.43,5.43,0,0,0-.45,2.19v9a1.83,1.83,0,0,1-.55,1.35,1.8,1.8,0,0,1-1.33.55,1.89,1.89,0,0,1-1.91-1.9V104.61a1.84,1.84,0,0,1,.56-1.34,1.81,1.81,0,0,1,1.35-.57,1.91,1.91,0,0,1,1.88,1.87Z"/><path class="cls-6" d="M180.24,99.09a2.22,2.22,0,0,1-2.23,2.23,2.24,2.24,0,0,1-2.24-2.23A2.24,2.24,0,0,1,178,96.86a2.22,2.22,0,0,1,2.23,2.23Zm-4.12,22V104.61A1.89,1.89,0,0,1,178,102.7a1.81,1.81,0,0,1,1.33.56,1.89,1.89,0,0,1,.57,1.35v16.51a1.89,1.89,0,0,1-.57,1.35A1.8,1.8,0,0,1,178,123a1.88,1.88,0,0,1-1.89-1.9Z"/><path class="cls-6" d="M212.5,121.12a1.84,1.84,0,0,1-.56,1.35,1.9,1.9,0,0,1-2.67,0,1.87,1.87,0,0,1-.55-1.35V110.8a4.2,4.2,0,0,0-.33-1.66,4.58,4.58,0,0,0-.92-1.37,4.37,4.37,0,0,0-1.37-.93,4.15,4.15,0,0,0-1.69-.34,4.06,4.06,0,0,0-1.67.34,4.49,4.49,0,0,0-1.37.93,4,4,0,0,0-.93,1.36,4.22,4.22,0,0,0-.33,1.67v10.32a1.84,1.84,0,0,1-.56,1.35,1.8,1.8,0,0,1-1.33.55,1.89,1.89,0,0,1-1.91-1.9V110.8a4.06,4.06,0,0,0-.34-1.67,4.46,4.46,0,0,0-2.29-2.29,4.06,4.06,0,0,0-1.67-.34,4.29,4.29,0,0,0-4,2.63,4.06,4.06,0,0,0-.34,1.67v10.32a1.83,1.83,0,0,1-.55,1.35,1.8,1.8,0,0,1-1.33.55,1.84,1.84,0,0,1-1.36-.55,1.87,1.87,0,0,1-.55-1.35V104.59a1.9,1.9,0,0,1,3-1.53,1.71,1.71,0,0,1,.67.93A7.81,7.81,0,0,1,192,102.7a8.18,8.18,0,0,1,3.41.72,7.67,7.67,0,0,1,2.8,2.17,7.92,7.92,0,0,1,6.19-2.89,7.77,7.77,0,0,1,3.13.65,8.18,8.18,0,0,1,4.31,4.32,7.7,7.7,0,0,1,.65,3.13Z"/><path class="cls-6" d="M219.54,105a9.63,9.63,0,0,1,6.37-2.25,10.32,10.32,0,0,1,9.41,6.25,10.12,10.12,0,0,1,.75,3.91,9.71,9.71,0,0,1-3,7.19,10.16,10.16,0,0,1-17.34-7.19v-17A1.83,1.83,0,0,1,217.63,94a1.87,1.87,0,0,1,1.36.54,1.84,1.84,0,0,1,.55,1.35Zm6.37,14.28a6.08,6.08,0,0,0,2.48-.51,6.32,6.32,0,0,0,2-1.37,6.89,6.89,0,0,0,1.36-2,6.18,6.18,0,0,0,.5-2.46,6.1,6.1,0,0,0-.5-2.45,6.76,6.76,0,0,0-1.36-2,6.52,6.52,0,0,0-2-1.38,6.24,6.24,0,0,0-2.48-.5,6.35,6.35,0,0,0-2.51.5,6.57,6.57,0,0,0-2,1.37,6.44,6.44,0,0,0-1.35,2,6.33,6.33,0,0,0,0,4.93,6.38,6.38,0,0,0,3.36,3.39A6.19,6.19,0,0,0,225.91,119.23Z"/><path class="cls-6" d="M238.79,121.14V95.9a1.9,1.9,0,0,1,.53-1.35,1.92,1.92,0,0,1,2.71,0,1.9,1.9,0,0,1,.53,1.35v23.33h.87a1.84,1.84,0,0,1,1.34.56,1.89,1.89,0,0,1-1.34,3.23h-2.77a1.8,1.8,0,0,1-1.33-.55A1.83,1.83,0,0,1,238.79,121.14Z"/><path class="cls-6" d="M263.14,117.31a1.86,1.86,0,0,1,1.35.53,1.83,1.83,0,0,1,.53,1.36,1.9,1.9,0,0,1-.54,1.36A10,10,0,1,1,267.26,109a10.31,10.31,0,0,1,.74,3.91,1.81,1.81,0,0,1-.55,1.36,1.9,1.9,0,0,1-1.36.53H251.72a6.21,6.21,0,0,0,.91,1.82A6.13,6.13,0,0,0,254,118a6.68,6.68,0,0,0,1.78.92,6.47,6.47,0,0,0,2,.32,6.37,6.37,0,0,0,2.19-.36,6.06,6.06,0,0,0,1.86-1.09A2,2,0,0,1,263.14,117.31ZM264,111a6,6,0,0,0-.91-1.83,6.55,6.55,0,0,0-1.42-1.41,6.68,6.68,0,0,0-1.78-.92,6.12,6.12,0,0,0-2-.32,6.32,6.32,0,0,0-2,.32,6.74,6.74,0,0,0-1.79.92,6.13,6.13,0,0,0-1.42,1.41,6,6,0,0,0-.89,1.83Z"/><g class="cls-26"><path class="cls-6" d="M156,140l.07-.06a9.38,9.38,0,1,1-2.76,6.64V130.45a1.29,1.29,0,0,1,.4-.95,1.3,1.3,0,0,1,.95-.39,1.35,1.35,0,0,1,1.34,1.34Zm6.71,13.3a6.69,6.69,0,1,0-4.75-2A6.52,6.52,0,0,0,162.71,153.32Z"/><path class="cls-6" d="M192.26,154.66a1.34,1.34,0,1,1-2.68,0v-1.09a8.73,8.73,0,0,1-14.78-6.29v-8.74a1.37,1.37,0,0,1,1.35-1.34,1.25,1.25,0,0,1,.94.4,1.26,1.26,0,0,1,.4.94v8.74a6,6,0,0,0,12.09,0v-8.74a1.29,1.29,0,0,1,.39-.94,1.33,1.33,0,0,1,1.9,0,1.29,1.29,0,0,1,.39.94Z"/><path class="cls-6" d="M199.31,133.17a1.68,1.68,0,1,1-3.35,0,1.6,1.6,0,0,1,.49-1.18,1.65,1.65,0,0,1,2.37,0A1.6,1.6,0,0,1,199.31,133.17Zm-3,5.37a1.37,1.37,0,0,1,1.35-1.34,1.35,1.35,0,0,1,1.34,1.34v16.12a1.3,1.3,0,0,1-.39,1,1.32,1.32,0,0,1-1,.4,1.31,1.31,0,0,1-.95-.4,1.27,1.27,0,0,1-.4-1Z"/><path class="cls-6" d="M203,130.49a1.3,1.3,0,0,1,.39-1,1.29,1.29,0,0,1,.95-.4,1.27,1.27,0,0,1,1,.4,1.3,1.3,0,0,1,.39,1v22.83H207a1.33,1.33,0,0,1,1.34,1.34,1.3,1.3,0,0,1-.39,1,1.32,1.32,0,0,1-1,.4h-2.69a1.32,1.32,0,0,1-.95-.4,1.3,1.3,0,0,1-.39-1Z"/><path class="cls-6" d="M227.19,130.45a1.31,1.31,0,0,1,.39-.95,1.3,1.3,0,0,1,.95-.39,1.33,1.33,0,0,1,1.34,1.34V146.6a9.41,9.41,0,1,1-2.75-6.64l.07.06Zm0,16.15a6.71,6.71,0,1,0-2,4.76A6.49,6.49,0,0,0,227.19,146.6Z"/><path class="cls-6" d="M247.13,151.44a1.3,1.3,0,0,1,1,.39,1.31,1.31,0,0,1,.39.95,1.37,1.37,0,0,1-.38,1,9.41,9.41,0,1,1,3.27-7.14,1.3,1.3,0,0,1-.39,1,1.29,1.29,0,0,1-.95.4H235.36a6.75,6.75,0,0,0,6.6,5.37,6.31,6.31,0,0,0,4.33-1.6A1.35,1.35,0,0,1,247.13,151.44Zm1.43-6.18a6.74,6.74,0,0,0-13.2,0Z"/><path class="cls-6" d="M254.05,138.54a1.35,1.35,0,0,1,1.34-1.34,1.27,1.27,0,0,1,.95.4,1.29,1.29,0,0,1,.39.94V140a9.18,9.18,0,0,1,6.72-2.82,9.62,9.62,0,0,1,3.61.67,1.64,1.64,0,0,1,.55.36,1.3,1.3,0,0,1,.39,1,1.27,1.27,0,0,1-.4.95,1.31,1.31,0,0,1-1.53.26,6.79,6.79,0,0,0-2.62-.5,6.71,6.71,0,0,0-6.72,6.71v8.06a1.35,1.35,0,0,1-1.34,1.35,1.32,1.32,0,0,1-.95-.4,1.3,1.3,0,0,1-.39-1Z"/></g></svg>