<?xml version="1.0" encoding="utf-8"?>
<!-- Generator: Adobe Illustrator 23.0.1, SVG Export Plug-In . SVG Version: 6.00 Build 0)  -->
<svg version="1.1" id="Nimble-logo-fond-blanc-horizontal"
	 xmlns="http://www.w3.org/2000/svg" xmlns:xlink="http://www.w3.org/1999/xlink" x="0px" y="0px" viewBox="0 0 540 144"
	 style="enable-background:new 0 0 540 144;" xml:space="preserve">
<style type="text/css">
	.st0{fill:#29498E;}
	.st1{opacity:0.7;}
	.st2{fill:#FFFFFF;}
	.st3{fill:#DADADA;}
	.st4{fill:#D8927A;}
	.st5{fill:#F3BC96;}
	.st6{fill:#4A230E;}
	.st7{fill:#010000;}
	.st8{fill:#030000;}
	.st9{fill:#1D1719;}
</style>
<g>
	<g>
		<g>
			<g>
				<g>
					<path class="st0" d="M152.8,66.2c2.4-1.9,5.2-2.8,8.4-2.8c1.9,0,3.7,0.4,5.4,1.1c1.7,0.7,3.2,1.7,4.5,3
						c1.3,1.3,2.3,2.8,3.1,4.5c0.8,1.7,1.1,3.5,1.1,5.5v13.3c0,0.8-0.3,1.5-0.8,2c-0.5,0.5-1.2,0.8-2,0.8c-0.8,0-1.5-0.3-2-0.8
						c-0.5-0.5-0.8-1.2-0.8-2V77.4c0-1.2-0.2-2.2-0.7-3.3c-0.4-1-1.1-1.9-1.8-2.7c-0.8-0.8-1.7-1.4-2.7-1.8c-1-0.4-2.1-0.7-3.3-0.7
						c-1.2,0-2.3,0.2-3.3,0.7c-1,0.4-1.9,1-2.7,1.8c-0.8,0.8-1.4,1.7-1.8,2.7s-0.7,2.1-0.7,3.3v13.3c0,0.8-0.3,1.5-0.8,2
						c-0.5,0.5-1.2,0.8-2,0.8c-0.8,0-1.5-0.3-2-0.8c-0.5-0.5-0.8-1.2-0.8-2V66.2c0-0.8,0.3-1.4,0.8-2c0.5-0.6,1.2-0.8,2-0.8
						c0.8,0,1.4,0.3,2,0.8C152.5,64.8,152.8,65.4,152.8,66.2z"/>
					<path class="st0" d="M187.1,58c0,0.9-0.3,1.7-1,2.3s-1.4,1-2.3,1c-0.9,0-1.7-0.3-2.3-1s-1-1.4-1-2.3c0-0.9,0.3-1.7,1-2.3
						c0.6-0.6,1.4-1,2.3-1c0.9,0,1.7,0.3,2.3,1C186.8,56.3,187.1,57.1,187.1,58z M181,90.7V66.2c0-0.8,0.3-1.5,0.8-2
						c0.5-0.5,1.2-0.8,2-0.8c0.8,0,1.4,0.3,2,0.8c0.5,0.5,0.8,1.2,0.9,2v24.5c0,0.8-0.3,1.5-0.9,2c-0.5,0.5-1.2,0.8-2,0.8
						c-0.8,0-1.4-0.3-2-0.8C181.3,92.2,181,91.5,181,90.7z"/>
					<path class="st0" d="M235.1,90.7c0,0.8-0.3,1.5-0.8,2c-0.5,0.5-1.2,0.8-2,0.8c-0.8,0-1.5-0.3-2-0.8c-0.5-0.5-0.8-1.2-0.8-2
						V75.4c0-0.9-0.2-1.7-0.5-2.5c-0.3-0.8-0.8-1.5-1.4-2c-0.6-0.6-1.3-1-2-1.4c-0.8-0.3-1.6-0.5-2.5-0.5c-0.9,0-1.7,0.2-2.5,0.5
						c-0.8,0.3-1.5,0.8-2,1.4c-0.6,0.6-1,1.2-1.4,2c-0.3,0.8-0.5,1.6-0.5,2.5v15.3c0,0.8-0.3,1.5-0.8,2c-0.5,0.5-1.2,0.8-2,0.8
						c-0.8,0-1.5-0.3-2-0.8c-0.5-0.5-0.8-1.2-0.8-2V75.4c0-0.9-0.2-1.7-0.5-2.5c-0.3-0.8-0.8-1.4-1.4-2c-0.6-0.6-1.3-1-2-1.4
						c-0.8-0.3-1.6-0.5-2.5-0.5s-1.7,0.2-2.5,0.5c-0.8,0.3-1.5,0.8-2,1.4c-0.6,0.6-1,1.3-1.4,2c-0.3,0.8-0.5,1.6-0.5,2.5v15.3
						c0,0.8-0.3,1.5-0.8,2c-0.5,0.5-1.2,0.8-2,0.8c-0.8,0-1.5-0.3-2-0.8c-0.5-0.5-0.8-1.2-0.8-2V66.2c0-0.8,0.3-1.4,0.8-2
						c0.5-0.5,1.2-0.8,2-0.8c0.6,0,1.2,0.2,1.7,0.5c0.5,0.4,0.8,0.8,1,1.4c1.9-1.3,4.1-1.9,6.5-1.9c1.8,0,3.5,0.4,5.1,1.1
						c1.6,0.7,3,1.8,4.2,3.2c2.5-2.9,5.6-4.3,9.2-4.3c1.6,0,3.2,0.3,4.7,1c1.5,0.6,2.7,1.5,3.8,2.6c1.1,1.1,1.9,2.4,2.6,3.8
						c0.6,1.5,1,3,1,4.6V90.7z"/>
					<path class="st0" d="M245.5,66.7c2.7-2.2,5.8-3.3,9.5-3.3c4.1,0,7.7,1.5,10.7,4.4c1.5,1.5,2.6,3.1,3.3,4.9
						c0.7,1.8,1.1,3.7,1.1,5.8c0,4.2-1.5,7.8-4.4,10.7c-3,2.9-6.5,4.4-10.7,4.4c-4.2,0-7.7-1.5-10.7-4.4c-2.9-2.9-4.4-6.5-4.4-10.7
						V53.2c0-0.8,0.3-1.5,0.8-2c0.5-0.5,1.2-0.8,2-0.8c0.8,0,1.5,0.3,2,0.8c0.5,0.5,0.8,1.2,0.8,2V66.7z M255,87.9
						c1.3,0,2.5-0.3,3.7-0.8c1.2-0.5,2.2-1.2,3-2c0.9-0.9,1.5-1.9,2-3c0.5-1.1,0.7-2.4,0.7-3.7c0-1.3-0.2-2.5-0.7-3.7s-1.2-2.1-2-3
						c-0.9-0.9-1.9-1.5-3-2c-1.2-0.5-2.4-0.8-3.7-0.8c-1.3,0-2.6,0.3-3.7,0.8c-1.2,0.5-2.1,1.2-3,2c-0.8,0.9-1.5,1.9-2,3
						c-0.5,1.1-0.7,2.4-0.7,3.7c0,1.3,0.2,2.5,0.7,3.7c0.5,1.2,1.2,2.2,2,3c0.8,0.9,1.8,1.5,3,2C252.4,87.7,253.7,87.9,255,87.9z"/>
					<path class="st0" d="M274.1,90.8V53.3c0-0.8,0.3-1.5,0.8-2c0.5-0.5,1.2-0.8,2-0.8c0.8,0,1.5,0.3,2,0.8c0.5,0.5,0.8,1.2,0.8,2
						v34.7h1.3c0.8,0,1.4,0.3,2,0.8c0.5,0.5,0.8,1.2,0.8,2c0,0.8-0.3,1.4-0.8,2c-0.5,0.5-1.2,0.8-2,0.8h-4.1c-0.8,0-1.4-0.3-2-0.8
						C274.4,92.2,274.1,91.5,274.1,90.8z"/>
					<path class="st0" d="M310.3,85.1c0.8,0,1.5,0.3,2,0.8c0.5,0.5,0.8,1.2,0.8,2c0,0.8-0.3,1.5-0.8,2c-2.8,2.4-6.1,3.7-9.9,3.7
						c-4.2,0-7.7-1.5-10.7-4.4c-2.9-2.9-4.4-6.5-4.4-10.7s1.5-7.7,4.4-10.7c2.9-2.9,6.5-4.4,10.7-4.4c4.1,0,7.7,1.5,10.7,4.4
						c1.5,1.5,2.6,3.1,3.3,4.9c0.7,1.8,1.1,3.7,1.1,5.8c0,0.8-0.3,1.5-0.8,2c-0.5,0.5-1.2,0.8-2,0.8h-21.3c0.3,1,0.8,1.9,1.3,2.7
						c0.6,0.8,1.3,1.5,2.1,2.1c0.8,0.6,1.7,1,2.6,1.4c1,0.3,2,0.5,3,0.5c1.2,0,2.3-0.2,3.3-0.5c1-0.4,1.9-0.9,2.7-1.6
						C309,85.3,309.6,85.1,310.3,85.1z M311.5,75.7c-0.3-1-0.8-1.9-1.4-2.7c-0.6-0.8-1.3-1.5-2.1-2.1c-0.8-0.6-1.7-1-2.6-1.4
						s-2-0.5-3-0.5s-2,0.2-3,0.5c-1,0.3-1.9,0.8-2.7,1.4c-0.8,0.6-1.5,1.3-2.1,2.1s-1,1.7-1.3,2.7H311.5z"/>
				</g>
				<g class="st1">
					<path class="st0" d="M331.2,67.9c0,0,0.1-0.1,0.1-0.1c2.9-2.9,6.5-4.4,10.7-4.4s7.7,1.5,10.7,4.4c2.9,2.9,4.4,6.5,4.4,10.7
						c0,4.2-1.5,7.7-4.4,10.7c-2.9,2.9-6.5,4.4-10.7,4.4s-7.7-1.5-10.7-4.4c-2.9-2.9-4.4-6.5-4.4-10.7V52.6c0-0.6,0.2-1.1,0.6-1.5
						c0.4-0.4,0.9-0.6,1.5-0.6s1.1,0.2,1.5,0.6c0.4,0.4,0.6,0.9,0.6,1.5V67.9z M342,89.3c3,0,5.5-1.1,7.6-3.1
						c2.1-2.1,3.1-4.6,3.1-7.6c0-3-1.1-5.5-3.1-7.6c-2.1-2.1-4.6-3.1-7.6-3.1s-5.5,1.1-7.6,3.1c-2.1,2.1-3.1,4.6-3.1,7.6
						c0,3,1.1,5.5,3.1,7.6C336.5,88.2,339,89.3,342,89.3z"/>
					<path class="st0" d="M389.4,91.4c0,0.6-0.2,1.1-0.6,1.5c-0.4,0.4-0.9,0.6-1.5,0.6s-1.1-0.2-1.5-0.6c-0.4-0.4-0.6-0.9-0.6-1.5
						v-1.7c-2.7,2.6-5.9,3.9-9.7,3.9c-3.9,0-7.2-1.4-9.9-4.1c-2.7-2.7-4.1-6-4.1-9.9v-14c0-0.6,0.2-1.1,0.6-1.5
						c0.4-0.4,0.9-0.6,1.5-0.6c0.6,0,1.1,0.2,1.5,0.6c0.4,0.4,0.6,0.9,0.6,1.5v14c0,2.7,0.9,5,2.8,6.9c1.9,1.9,4.2,2.8,6.9,2.8
						c2.7,0,5-0.9,6.9-2.8c1.9-1.9,2.8-4.2,2.8-6.9v-14c0-0.6,0.2-1.1,0.6-1.5c0.4-0.4,0.9-0.6,1.5-0.6s1.1,0.2,1.5,0.6
						c0.4,0.4,0.6,0.9,0.6,1.5V91.4z"/>
					<path class="st0" d="M400.7,57c0,0.7-0.3,1.4-0.8,1.9c-0.5,0.5-1.2,0.8-1.9,0.8s-1.4-0.3-1.9-0.8c-0.5-0.5-0.8-1.2-0.8-1.9
						c0-0.7,0.3-1.4,0.8-1.9c0.5-0.5,1.2-0.8,1.9-0.8s1.4,0.3,1.9,0.8C400.4,55.6,400.7,56.2,400.7,57z M395.8,65.6
						c0-0.6,0.2-1.1,0.6-1.5c0.4-0.4,0.9-0.6,1.5-0.6c0.6,0,1.1,0.2,1.5,0.6c0.4,0.4,0.6,0.9,0.6,1.5v25.8c0,0.6-0.2,1.1-0.6,1.5
						c-0.4,0.4-0.9,0.6-1.5,0.6c-0.6,0-1.1-0.2-1.5-0.6c-0.4-0.4-0.6-0.9-0.6-1.5V65.6z"/>
					<path class="st0" d="M406.6,52.6c0-0.6,0.2-1.1,0.6-1.5c0.4-0.4,0.9-0.6,1.5-0.6c0.6,0,1.1,0.2,1.5,0.6
						c0.4,0.4,0.6,0.9,0.6,1.5v36.6h2.2c0.6,0,1.1,0.2,1.5,0.6c0.4,0.4,0.6,0.9,0.6,1.5s-0.2,1.1-0.6,1.5c-0.4,0.4-0.9,0.6-1.5,0.6
						h-4.3c-0.6,0-1.1-0.2-1.5-0.6c-0.4-0.4-0.6-0.9-0.6-1.5V52.6z"/>
					<path class="st0" d="M445.4,52.6c0-0.6,0.2-1.1,0.6-1.5c0.4-0.4,0.9-0.6,1.5-0.6s1.1,0.2,1.5,0.6c0.4,0.4,0.6,0.9,0.6,1.5v25.9
						c0,4.2-1.5,7.7-4.4,10.7c-2.9,2.9-6.5,4.4-10.7,4.4s-7.7-1.5-10.7-4.4c-2.9-2.9-4.4-6.5-4.4-10.7c0-4.2,1.5-7.7,4.4-10.7
						c2.9-2.9,6.5-4.4,10.7-4.4s7.7,1.5,10.7,4.4c0,0,0.1,0.1,0.1,0.1V52.6z M445.4,78.5c0-3-1.1-5.5-3.1-7.6
						c-2.1-2.1-4.6-3.1-7.6-3.1s-5.5,1.1-7.6,3.1c-2.1,2.1-3.1,4.6-3.1,7.6c0,3,1.1,5.5,3.1,7.6c2.1,2.1,4.6,3.1,7.6,3.1
						s5.5-1.1,7.6-3.1C444.3,84,445.4,81.5,445.4,78.5z"/>
					<path class="st0" d="M477.4,86.2c0.6,0,1.1,0.2,1.5,0.6c0.4,0.4,0.6,0.9,0.6,1.5s-0.2,1.1-0.6,1.5c-2.8,2.4-6.1,3.6-9.8,3.6
						c-4.2,0-7.7-1.5-10.7-4.4c-2.9-2.9-4.4-6.5-4.4-10.7c0-4.2,1.5-7.7,4.4-10.7c2.9-2.9,6.5-4.4,10.7-4.4c4.2,0,7.7,1.5,10.7,4.4
						c2.9,2.9,4.4,6.5,4.4,10.7c0,0.6-0.2,1.1-0.6,1.5c-0.4,0.4-0.9,0.6-1.5,0.6h-23.5c0.4,2.1,1.4,3.9,3,5.5
						c2.1,2.1,4.6,3.1,7.6,3.1c2.7,0,5-0.9,6.9-2.6C476.4,86.4,476.9,86.2,477.4,86.2z M479.6,76.3c-0.4-2.1-1.4-3.9-3-5.5
						c-2.1-2.1-4.6-3.1-7.6-3.1c-3,0-5.5,1.1-7.6,3.1c-1.6,1.6-2.6,3.4-3,5.5H479.6z"/>
					<path class="st0" d="M488.5,65.6c0-0.6,0.2-1.1,0.6-1.5c0.4-0.4,0.9-0.6,1.5-0.6s1.1,0.2,1.5,0.6c0.4,0.4,0.6,0.9,0.6,1.5v2.4
						c3-3,6.6-4.5,10.8-4.5c2.1,0,4,0.4,5.8,1.1c0.3,0.1,0.6,0.3,0.9,0.6c0.4,0.4,0.6,0.9,0.6,1.5s-0.2,1.1-0.6,1.5
						c-0.4,0.4-0.9,0.6-1.5,0.6c-0.3,0-0.7-0.1-0.9-0.2c-1.3-0.5-2.7-0.8-4.2-0.8c-3,0-5.5,1.1-7.6,3.1c-2.1,2.1-3.1,4.6-3.1,7.6
						v12.9c0,0.6-0.2,1.1-0.6,1.5c-0.4,0.4-0.9,0.6-1.5,0.6s-1.1-0.2-1.5-0.6c-0.4-0.4-0.6-0.9-0.6-1.5V65.6z"/>
				</g>
			</g>
		</g>
	</g>
	<g>
		<g>
			<g>
				<path class="st2" d="M127.9,79.9c0,27.1-22,49.1-49.1,49.1s-49.1-22-49.1-49.1c0-27.1,22-49.1,49.1-49.1S127.9,52.7,127.9,79.9"
					/>
				<path class="st3" d="M78.8,129.5c-27.4,0-49.6-22.3-49.6-49.6s22.3-49.6,49.6-49.6s49.6,22.3,49.6,49.6S106.2,129.5,78.8,129.5z
					 M78.8,31.3c-26.8,0-48.5,21.8-48.5,48.5s21.8,48.5,48.5,48.5s48.5-21.8,48.5-48.5S105.6,31.3,78.8,31.3z"/>
			</g>
			<path class="st4" d="M49.9,85.3c-2.5,0.6-5.9-2-6.9-5.8c-1-3.8,0.2-7.5,2.7-8.1"/>
			<path class="st4" d="M107.7,85.3c2.5,0.6,5.9-2,6.9-5.8c1-3.8-0.2-7.5-2.7-8.1"/>
			<path class="st5" d="M78.8,103.9c-4.6,0-8.1-0.6-9.2-0.7C55.9,101.6,50.7,88,46.7,77.7c-0.5-1.3-0.8-2.9-1.1-4.2
				c-0.4-2.1-0.1-4.4-0.1-5.5c0-17.3,11.8-27,33.3-28.5h0c21.4,1.4,33.3,11.2,33.3,28.5c0,1.2,0.3,3.4-0.1,5.5
				c-0.2,1.2-0.6,2.9-1.1,4.2c-4,10.4-9.2,23.9-22.8,25.5C86.9,103.3,83.4,104,78.8,103.9L78.8,103.9"/>
			<path class="st6" d="M108.1,81.6c0,0-0.9-11.6-0.9-15.1c0-4.8,1.2-12.6,1.2-12.6l5.1,9.8C113.5,63.7,112.2,80.1,108.1,81.6"/>
			<path class="st7" d="M91.9,72.3c-5.4,0-9.8-4.4-9.8-9.8c0-5.4,4.4-9.8,9.8-9.8c5.4,0,9.8,4.4,9.8,9.8
				C101.7,67.9,97.3,72.3,91.9,72.3 M91.9,53.9c-4.7,0-8.6,3.9-8.6,8.6c0,4.7,3.9,8.6,8.6,8.6c4.7,0,8.6-3.9,8.6-8.6
				C100.4,57.8,96.6,53.9,91.9,53.9"/>
			<path class="st8" d="M101.3,63.1c3.9,1.3,2.7,5.9,3.9,8.9c1,2.4,2.9,4.3,5.3,5.2c0.6,0.2,0.8-0.7,0.2-0.9c-2.3-0.9-4.2-3.1-5-5.4
				c-0.4-1.4-0.3-2.9-0.7-4.3c-0.5-2-1.5-3.7-3.6-4.3C101,62.1,100.8,63,101.3,63.1"/>
			<path class="st9" d="M79.9,72.6c-0.5,0.8-1.7,0.8-2.4,0.1c-0.7-0.8-1.8,0.4-1.1,1.1c1.3,1.5,3.8,1.2,4.8-0.5
				C81.8,72.5,80.5,71.7,79.9,72.6"/>
			<path class="st7" d="M78,109.9c-1.6,1.1-1.2,6.7,1.8,6.4C83.5,115.8,82.2,107,78,109.9"/>
			<path class="st7" d="M79.5,116.6c-1.1,0-1.9-0.7-2.4-2c-0.6-1.7-0.4-4.2,0.7-4.9l0.2,0.3l-0.2-0.3c1.4-1,2.4-0.6,3-0.2
				c1.3,0.9,1.7,3.2,1.3,4.8c-0.4,1.4-1.2,2.2-2.4,2.3C79.6,116.6,79.5,116.6,79.5,116.6 M79.6,109.6c-0.4,0-0.9,0.2-1.4,0.5
				c-0.8,0.5-1.1,2.7-0.5,4.2c0.2,0.6,0.8,1.7,2,1.6c1.2-0.1,1.7-1.2,1.8-1.9c0.4-1.6-0.1-3.5-1-4.2
				C80.2,109.7,79.9,109.6,79.6,109.6"/>
			<path class="st6" d="M58.1,44.7c0,0,20.8,4.2,30.4,4.6c11.6,0.4,16.5,0,16.5,0S83.8,34.9,58.1,44.7"/>
			<path class="st6" d="M78.7,78.6c0,0-1.3-1.8-4.2-1.2c-2.9,0.6-9.2,4.8-9.2,4.8S61.1,85,61.1,81c0-1.3,0.7-2.1,1.6-2.2
				c0.8-0.1,1.7,0.1,1.7,0.1s-1-1.5-3.2-0.7c-3.1,1.1-4.9,10.2,3.9,10.8c4.4,0.3,7.2-1.3,9.2-2.3c2-1,4.3-2.5,4.3-2.5L78.7,78.6z"/>
			<path class="st6" d="M66.2,89.3c-0.4,0-0.7,0-1.1,0c-5.4-0.4-6.5-3.8-6.7-5.2c-0.4-2.6,0.9-5.5,2.7-6.2c2.4-0.9,3.5,0.8,3.5,0.8
				c0.1,0.1,0.1,0.2,0,0.3c-0.1,0.1-0.2,0.2-0.3,0.1c0,0-0.8-0.2-1.6-0.1c-0.9,0.2-1.4,0.8-1.4,1.9c0,0.9,0.2,1.5,0.7,1.7
				c0.9,0.5,2.5-0.4,3.1-0.8c0.3-0.2,6.4-4.3,9.3-4.9c3.1-0.6,4.4,1.2,4.5,1.3c0,0.1,0.1,0.1,0.1,0.2l0,5.6c0,0.1-0.1,0.2-0.1,0.3
				c0,0-2.4,1.5-4.4,2.5l-0.6,0.3C72.1,88.1,69.7,89.3,66.2,89.3 M62.4,78.2c-0.3,0-0.7,0.1-1.1,0.2c-1.4,0.5-2.6,3-2.3,5.5
				c0.2,1.6,1.3,4.3,6.1,4.7c3.9,0.3,6.5-1,8.5-2l0.6-0.3c1.7-0.8,3.6-2,4.2-2.4l0-5.3c-0.3-0.3-1.4-1.5-3.8-1
				c-2.8,0.5-9.1,4.8-9.1,4.8c-0.1,0.1-2.3,1.5-3.7,0.8c-0.7-0.3-1-1.1-1-2.2c0-1.4,0.7-2.3,1.9-2.5c0.2,0,0.5-0.1,0.7-0.1
				C63.1,78.3,62.8,78.2,62.4,78.2"/>
			<path class="st6" d="M78.9,78.6c0,0,1.3-1.8,4.2-1.2c2.9,0.6,9.2,4.8,9.2,4.8s4.2,2.8,4.2-1.2c0-1.3-0.7-2.1-1.6-2.2
				c-0.8-0.1-1.7,0.1-1.7,0.1s1-1.5,3.2-0.7c3.1,1.1,4.9,10.2-3.9,10.8c-4.4,0.3-7.2-1.3-9.2-2.3c-2-1-4.3-2.5-4.3-2.5L78.9,78.6z"
				/>
			<path class="st6" d="M91.4,89.3c-3.5,0-5.9-1.2-7.7-2.1l-0.6-0.3c-2-1-4.4-2.5-4.4-2.5c-0.1-0.1-0.1-0.2-0.1-0.3l0-5.6
				c0-0.1,0-0.1,0.1-0.2c0.1-0.1,1.4-1.9,4.5-1.3c2.9,0.6,9.1,4.7,9.3,4.9c0.6,0.4,2.2,1.2,3.1,0.8c0.4-0.2,0.7-0.8,0.7-1.7
				c0-1.1-0.5-1.8-1.4-1.9c-0.7-0.1-1.5,0.1-1.6,0.1c-0.1,0-0.2,0-0.3-0.1c-0.1-0.1-0.1-0.2,0-0.3c0,0,1.2-1.7,3.5-0.8
				c1.8,0.7,3,3.6,2.7,6.2c-0.2,1.4-1.3,4.8-6.7,5.2C92.1,89.3,91.8,89.3,91.4,89.3 M79.2,84c0.5,0.3,2.5,1.5,4.2,2.4l0.6,0.3
				c1.9,1,4.6,2.3,8.5,2c4.8-0.3,5.9-3.1,6.1-4.7c0.4-2.5-0.9-5-2.3-5.5c-0.9-0.3-1.6-0.2-2.1,0c0.2,0,0.5,0,0.7,0.1
				c1.2,0.2,1.9,1.2,1.9,2.5c0,1.1-0.3,1.9-1,2.2c-1.4,0.7-3.6-0.7-3.7-0.8c-0.1,0-6.3-4.3-9.1-4.8c-2.4-0.4-3.5,0.7-3.8,1L79.2,84z
				"/>
			<path class="st7" d="M79.5,112.4c-4.3-2.4-8.5-4.8-12.8-7.1c-1-0.5-2.3-1-3-0.2c-0.3,0.4-0.4,1-0.4,1.5c-0.2,3.4-0.6,5.4-0.4,8.6
				c0.1,1.1,0.1,2.5,0.9,3.3c1.4,1.6,3.8,0.4,5.7-0.5c2.6-1.3,6.4-3.1,9-4.6"/>
			<path class="st7" d="M80.2,111.1l-8.5-4.8c-1.9-1.1-4.3-3.1-6.6-3.2c-4.4-0.2-3.7,6.5-3.8,9.3c-0.1,3.4,0,8.5,4.7,8.4
				c2.1-0.1,4.1-1.4,5.9-2.3c2.4-1.2,4.9-2.4,7.3-3.7c1.7-0.9,0.2-3.6-1.5-2.6c-2.5,1.4-5.1,2.7-7.7,4c-1.4,0.7-4.2,2.6-5.4,0.5
				c-0.6-1.1-0.2-3.9-0.1-5.1c0.1-1.1-0.1-3.4,0.4-4.3c0.6-1.1,0.9-0.6,2.2,0c0.7,0.3,1.4,0.8,2.1,1.2c3.2,1.8,6.4,3.6,9.6,5.4
				C80.4,114.7,82,112.1,80.2,111.1"/>
			<path class="st7" d="M79.5,112.4c4.3-2.4,8.5-4.8,12.8-7.1c1-0.5,2.3-1,3-0.2c0.3,0.4,0.4,1,0.4,1.5c0.2,3.4,0.6,5.4,0.4,8.6
				c-0.1,1.1-0.1,2.5-0.9,3.3c-1.4,1.6-3.8,0.4-5.7-0.5c-2.6-1.3-6.4-3.1-9-4.6"/>
			<path class="st7" d="M80.2,113.7c3-1.7,6-3.4,9-5.1c0.7-0.4,3.9-2.8,4.8-2.1c0.4,0.4,0.4,4.3,0.4,4.9c0.1,1.3,0.4,3.3-0.1,4.4
				c-1,2.5-3.2,1.3-5,0.4c-2.7-1.4-5.5-2.7-8.2-4.2c-1.7-0.9-3.3,1.7-1.5,2.6c2.4,1.3,4.8,2.5,7.3,3.7c1.8,0.9,3.9,2.2,5.9,2.3
				c4.6,0.2,4.8-4.9,4.7-8.4c-0.1-2.8,0.6-9.6-3.8-9.3c-2.3,0.1-4.7,2.1-6.6,3.2c-2.8,1.6-5.7,3.2-8.5,4.8
				C77,112.1,78.5,114.7,80.2,113.7"/>
			<path class="st7" d="M65.8,59.2c-3.4,0-5.3,4.8-5.3,4.8c2.5-2.7,3.8-3.6,5.3-3.6c1.5,0,2.9,1,5.4,3.6
				C71.2,64.1,69.3,59.2,65.8,59.2C65.9,59.2,65.9,59.2,65.8,59.2L65.8,59.2z"/>
			<path class="st7" d="M71.2,64.9c-0.2,0-0.5-0.1-0.7-0.3c-2.3-2.5-3.5-3.3-4.7-3.3c-1.2,0-2.3,0.8-4.7,3.3
				C60.9,65,60.4,65,60,64.8c-0.4-0.2-0.5-0.7-0.3-1.1c0.1-0.2,2.2-5.4,6.1-5.4c0,0,0,0,0,0h0c0,0,0,0,0,0c3.9,0,6,5.2,6.1,5.4
				c0.2,0.4,0,0.9-0.3,1.1C71.5,64.9,71.4,64.9,71.2,64.9"/>
			<path class="st7" d="M91.7,59.2c-3.3,0-5.3,4.8-5.3,4.8c2.5-2.7,3.8-3.6,5.3-3.6c1.5,0,2.9,1,5.4,3.6
				C97.1,64.1,95.1,59.2,91.7,59.2C91.8,59.2,91.8,59.2,91.7,59.2L91.7,59.2z"/>
			<path class="st7" d="M86.4,64.9c-0.2,0-0.3,0-0.5-0.1c-0.4-0.2-0.5-0.7-0.3-1.1c0.1-0.2,2.2-5.4,6.1-5.4c0,0,0,0,0,0h0
				c0,0,0,0,0,0c3.9,0,6,5.2,6.1,5.4c0.2,0.4,0,0.9-0.3,1.1c-0.4,0.2-0.8,0.2-1.1-0.1c-2.3-2.5-3.5-3.3-4.7-3.3
				c-1.2,0-2.3,0.8-4.7,3.3C86.9,64.8,86.6,64.9,86.4,64.9"/>
			<path class="st6" d="M49.6,81.6c0,0,0.9-11.6,0.9-15.1c0-4.8-1.2-12.6-1.2-12.6l-5.1,9.8C44.2,63.7,45.5,80.1,49.6,81.6"/>
			<path class="st7" d="M78,43.5h1.7c16.2-0.4,25.5,6.4,28.7,10.4c2.7,3.3,4.2,7,4.7,10.7c0.4,3-0.1,6.4-0.1,6.4s22.1-17.4-4.8-29.6
				c-2.6-11.8-5.8-25-27.4-25.9c-0.4,0-0.8,0-1.3,0H78h1.7h-1.7c-0.4,0-0.8,0-1.3,0c-21.6,0.9-24.8,14.2-27.4,25.9
				C22.4,53.5,44.6,71,44.6,71s-0.5-3.4-0.1-6.4c0.5-3.7,2.1-7.3,4.7-10.7C52.4,49.9,61.7,43.1,78,43.5h1.7"/>
			<path class="st7" d="M44.6,71.9c-0.2,0-0.4-0.1-0.6-0.2c-0.4-0.3-9.9-7.9-8.8-17c0.7-5.5,5.2-10.2,13.4-14
				c2.5-11.4,5.9-25.3,28.1-26.2c0.4,0,0.9,0,1.3,0h0h0h1.7c0.4,0,0.9,0,1.3,0c22.3,0.9,25.6,14.8,28.1,26.2
				c8.2,3.8,12.7,8.5,13.4,14c1.1,9-8.4,16.6-8.8,17c-0.3,0.2-0.7,0.3-1.1,0.1c-0.3-0.2-0.5-0.6-0.5-1c0,0,0.5-3.3,0.1-6.2
				c-0.5-3.6-2-7.1-4.5-10.2c-0.9-1.1-9-10.5-27.9-10h0h0h-1.7c-19-0.4-27.1,9-28,10c-2.5,3.1-4,6.5-4.5,10.2
				c-0.4,2.9,0.1,6.1,0.1,6.2c0.1,0.4-0.1,0.8-0.5,1C44.9,71.9,44.7,71.9,44.6,71.9 M80.9,42.5c14.4,0,24.1,5.7,28.2,10.7
				c2.7,3.4,4.4,7.1,4.9,11.1c0.2,1.5,0.2,3,0.1,4.2c2.6-2.6,7.1-7.9,6.4-13.7c-0.6-4.9-4.9-9.2-12.7-12.7c-0.3-0.1-0.5-0.4-0.5-0.7
				c-2.5-11.4-5.3-24.3-26.5-25.2c-0.4,0-0.8,0-1.2,0h0h0h-1.7c-0.4,0-0.8,0-1.2,0c-21.1,0.9-24,13.8-26.5,25.2
				c-0.1,0.3-0.3,0.5-0.5,0.7C41.9,45.8,37.6,50.1,37,55c-0.7,5.7,3.8,11.1,6.4,13.7c-0.1-1.2-0.1-2.8,0.1-4.2
				c0.5-4,2.2-7.7,4.9-11.1c4.2-5.2,14.4-11,29.5-10.7h0h0h1.7C80.1,42.5,80.5,42.5,80.9,42.5"/>
		</g>
	</g>
</g>
</svg>
