<svg xmlns="http://www.w3.org/2000/svg" viewBox="0 0 80 80"><defs><style>.cls-1{fill:#404a4c;}</style></defs><title>Nimble_rich-text-editor_icons</title><g id="Calque_21" data-name="Calque 21"><path class="cls-1" d="M56.77,22H42.68a.49.49,0,1,1,0-1H56.77a.49.49,0,1,1,0,1Z"/><path class="cls-1" d="M56.77,26.49H42.68a.49.49,0,1,1,0-1H56.77a.49.49,0,1,1,0,1Z"/><path class="cls-1" d="M56.77,30.94H42.68a.49.49,0,1,1,0-1H56.77a.49.49,0,1,1,0,1Z"/><path class="cls-1" d="M56.77,35.39H40.29a.49.49,0,0,1,0-1H56.77a.49.49,0,1,1,0,1Z"/><path class="cls-1" d="M37.64,17.72l.21,4.45h-.53a5.41,5.41,0,0,0-.42-1.68,2.82,2.82,0,0,0-1.16-1.2,4,4,0,0,0-1.9-.39H31.17V33.42a3.88,3.88,0,0,0,.38,2.19,2.1,2.1,0,0,0,1.64.59h.66v.52H25.79V36.2h.67a1.93,1.93,0,0,0,1.71-.73,4.26,4.26,0,0,0,.31-2V18.91H26.2a6.37,6.37,0,0,0-1.89.2,2.59,2.59,0,0,0-1.25,1,4.13,4.13,0,0,0-.62,2h-.53l.22-4.45H37.64m0-1H22.13a1,1,0,0,0-1,.95l-.22,4.45a1,1,0,0,0,1,1.05h.53a1,1,0,0,0,1-.92,3.2,3.2,0,0,1,.44-1.55,1.61,1.61,0,0,1,.77-.65,5.42,5.42,0,0,1,1.55-.14h1.28V33.42a4.2,4.2,0,0,1-.15,1.5s-.19.27-.87.27h-.67a1,1,0,0,0-1,1v.52a1,1,0,0,0,1,1h8.05a1,1,0,0,0,1-1V36.2a1,1,0,0,0-1-1h-.66a1.37,1.37,0,0,1-.86-.22,4.71,4.71,0,0,1-.15-1.55V19.91h1.68a3.1,3.1,0,0,1,1.43.27A1.83,1.83,0,0,1,36,21a4.44,4.44,0,0,1,.31,1.34,1,1,0,0,0,1,.87h.53a1,1,0,0,0,1-1l-.21-4.45a1,1,0,0,0-1-1Z"/><path class="cls-1" d="M41.58,47.74a2.71,2.71,0,1,0,2.71,2.71A2.72,2.72,0,0,0,41.58,47.74Zm0,4.43a1.71,1.71,0,1,1,1.71-1.71A1.72,1.72,0,0,1,41.58,52.16Z"/><path class="cls-1" d="M27.4,48.77l-4.67-2.69a.5.5,0,0,0-.75.43v5.39a.5.5,0,0,0,.75.43l4.67-2.69a.5.5,0,0,0,0-.87ZM23,51V47.37l3.17,1.83Z"/><path class="cls-1" d="M62.14,43.22,50.28,41.45A2,2,0,0,0,48,43.14l-.41,2.78H31.44a8,8,0,1,0-2.33,9.55v6.76a1.05,1.05,0,0,0,1.05,1.05H49.06a1.05,1.05,0,0,0,1.05-1.05V57.6L59.79,59l.3,0a2,2,0,0,0,2-1.71l1.76-11.87A2,2,0,0,0,62.14,43.22Zm-38,13a7,7,0,1,1,7-7A7,7,0,0,1,24.15,56.2Zm6,6V59.1l3.8-4.69,3.92,4.84a.5.5,0,0,0,.37.19.53.53,0,0,0,.38-.15L41,56.73l4.74,5.53Zm19,0a.06.06,0,0,1-.05.05h-2l-5.66-6.61a.5.5,0,0,0-.37-.17.54.54,0,0,0-.37.15l-2.44,2.54-4-4.87a.5.5,0,0,0-.78,0l-3.4,4.2v-3a7.94,7.94,0,0,0,1.68-7.57l15.62,0-1.2,8a2,2,0,0,0,1.68,2.27l1.19.18Zm12-5a1,1,0,0,1-1.14.84L48.07,56.29a1,1,0,0,1-.84-1.14L49,43.29a1,1,0,0,1,1-.85h.15L62,44.21a1,1,0,0,1,.84,1.14Z"/><path class="cls-1" d="M58.84,47.93a.5.5,0,0,0-.83.56l1.82,2.66L57.18,53a.5.5,0,0,0,.56.83l3.07-2.1a.5.5,0,0,0,.13-.7Z"/><path class="cls-1" d="M50.23,49.35l2.66-1.82a.5.5,0,1,0-.56-.83l-3.07,2.1a.5.5,0,0,0-.13.7l2.1,3.07A.5.5,0,1,0,52,52Z"/><path class="cls-1" d="M57.58,46a.5.5,0,0,0-.68.17l-4.59,7.73a.5.5,0,1,0,.86.51l4.59-7.73A.5.5,0,0,0,57.58,46Z"/></g></svg>