<svg xmlns="http://www.w3.org/2000/svg" viewBox="0 0 80 80"><defs><style>.cls-1{fill:#404a4c;}</style></defs><title>Nimble_Final_icons</title><g id="social_icon"><path class="cls-1" d="M31.84,48.39,32,45.47l-2.23-.15a2.68,2.68,0,0,0-3,2.67l0,.78-1.11-.07-.19,3,1.11.07-.35,5.61,3.33.21L29.86,52l1.53.1.49-3L30,49l0-.71ZM30.71,50l-.16,1-1.62-.1-.35,5.61-1.34-.08.35-5.61-1.11-.07.06-1,1.11.07.11-1.78a1.71,1.71,0,0,1,2-1.74L31,46.4l-.06.93-.76,0a1,1,0,0,0-1.06,1L29,49.92Z"/><path class="cls-1" d="M22.11,27.46a.53.53,0,0,0-.21.47,2.88,2.88,0,0,0,1.09,2,.5.5,0,0,0,0,.43,2.87,2.87,0,0,0,1.56,1.55,4.29,4.29,0,0,1-1.64.48,4.06,4.06,0,0,1-.51,0,.52.52,0,0,0-.5.37.5.5,0,0,0,.25.57,7.22,7.22,0,0,0,3.37.83l.63,0a7,7,0,0,0,5.17-2.82,7.49,7.49,0,0,0,1.44-5v-.06a5.26,5.26,0,0,0,1-1.28.5.5,0,0,0-.43-.74,3,3,0,0,0,.08-.3.5.5,0,0,0-.78-.52,4.26,4.26,0,0,1-1.06.55,2.91,2.91,0,0,0-1.94-.54A2.88,2.88,0,0,0,27,26.51a6.27,6.27,0,0,1-4.12-1.89.5.5,0,0,0-.81.13,2.88,2.88,0,0,0,.12,2.68Zm5.49.05a.5.5,0,0,0,.46-.66,1.88,1.88,0,0,1,3-2,.5.5,0,0,0,.4.12.5.5,0,0,0,.35.69.5.5,0,0,0-.14.41c0,.09,0,.19,0,.28a6.48,6.48,0,0,1-1.25,4.35A6,6,0,0,1,26,33.16a6.27,6.27,0,0,1-1.67-.08A5.23,5.23,0,0,0,26.12,32a.5.5,0,0,0,.12-.56.48.48,0,0,0-.49-.3,1.87,1.87,0,0,1-1.42-.51l.34-.1a.5.5,0,0,0-.12-1,1.88,1.88,0,0,1-1.45-1,2.87,2.87,0,0,0,.42,0,.5.5,0,0,0,.21-.94,1.87,1.87,0,0,1-1-1.73A7.27,7.27,0,0,0,27.6,27.52Z"/><path class="cls-1" d="M20.56,38.94h.2L36.5,37.57A2.33,2.33,0,0,0,38.63,35L37.39,20.77a2.33,2.33,0,0,0-2.52-2.12L19.13,20A2.33,2.33,0,0,0,17,22.53l1.23,14.28A2.33,2.33,0,0,0,20.56,38.94ZM19.22,21,35,19.64h.11a1.34,1.34,0,0,1,1.33,1.22l1.23,14.28a1.33,1.33,0,0,1-1.21,1.44L20.68,37.93a1.35,1.35,0,0,1-1.44-1.21L18,22.44A1.33,1.33,0,0,1,19.22,21Z"/><path class="cls-1" d="M37,42.4l-15.77-1a2.34,2.34,0,0,0-2.47,2.18l-.9,14.3a2.34,2.34,0,0,0,2.18,2.47l15.77,1H36a2.33,2.33,0,0,0,2.33-2.18l.9-14.3A2.34,2.34,0,0,0,37,42.4Zm.28,16.71a1.32,1.32,0,0,1-1.41,1.24l-15.77-1A1.33,1.33,0,0,1,18.9,58l.9-14.3a1.32,1.32,0,0,1,.45-.91,1.27,1.27,0,0,1,1-.33L37,43.4a1.33,1.33,0,0,1,1.24,1.41Z"/><path class="cls-1" d="M62.47,30.54a2.32,2.32,0,0,0-1.57-.84L45.16,28.2a2.34,2.34,0,0,0-2.54,2.1L41.26,44.57a2.34,2.34,0,0,0,2.1,2.54l15.73,1.5h.22a2.34,2.34,0,0,0,2.32-2.11L63,32.25A2.32,2.32,0,0,0,62.47,30.54ZM60.63,46.42a1.32,1.32,0,0,1-.48.9,1.34,1.34,0,0,1-1,.3l-15.73-1.5a1.33,1.33,0,0,1-1.2-1.45L43.62,30.4a1.33,1.33,0,0,1,1.45-1.2L60.8,30.7A1.33,1.33,0,0,1,62,32.15Z"/><path class="cls-1" d="M54.83,32.86l-4.32-.41a3.61,3.61,0,0,0-3.94,3.25L46.16,40A3.61,3.61,0,0,0,49.41,44l4.32.41a3.61,3.61,0,0,0,3.94-3.25l.41-4.32A3.61,3.61,0,0,0,54.83,32.86ZM56.59,41a2.53,2.53,0,0,1-2.76,2.28l-4.32-.41a2.53,2.53,0,0,1-2.28-2.76l.41-4.32a2.53,2.53,0,0,1,2.76-2.28l4.32.41A2.53,2.53,0,0,1,57,36.7Z"/><path class="cls-1" d="M52.4,35.53A2.89,2.89,0,1,0,55,38.68,2.89,2.89,0,0,0,52.4,35.53ZM52,40.21a1.81,1.81,0,1,1,2-1.63A1.81,1.81,0,0,1,52,40.21Z"/><circle class="cls-1" cx="55.51" cy="35.61" r="0.39" transform="translate(14.78 87.48) rotate(-84.54)"/></g></svg>