<?xml version="1.0" encoding="utf-8"?>
<!-- Generator: Adobe Illustrator 23.0.4, SVG Export Plug-In . SVG Version: 6.00 Build 0)  -->
<svg version="1.1" id="shortcode_x5F_icon" xmlns="http://www.w3.org/2000/svg" xmlns:xlink="http://www.w3.org/1999/xlink" x="0px"
	 y="0px" viewBox="0 0 80 80" style="enable-background:new 0 0 80 80;" xml:space="preserve">
<style type="text/css">
	.st0{fill:#404A4C;}
</style>
<g>
	<g>
		<path class="st0" d="M25.1,50.8"/>
	</g>
	<g>
		<path class="st0" d="M29,56.4h-6.6c-0.8,0-1.4-0.6-1.4-1.4V25c0-0.8,0.6-1.4,1.4-1.4H29c0.3,0,0.5,0.2,0.5,0.5s-0.2,0.5-0.5,0.5
			h-6.6c-0.2,0-0.4,0.2-0.4,0.4v30.2c0,0.2,0.2,0.4,0.4,0.4H29c0.3,0,0.5,0.2,0.5,0.5C29.5,56.4,29.3,56.4,29,56.4z"/>
		<path class="st0" d="M57.6,56.4H51c-0.3,0-0.5-0.2-0.5-0.5c0-0.3,0.2-0.5,0.5-0.5h6.6c0.2,0,0.4-0.2,0.4-0.4V25
			c0-0.2-0.2-0.4-0.4-0.4H51c-0.3,0-0.5-0.2-0.5-0.5s0.2-0.5,0.5-0.5h6.6c0.8,0,1.4,0.6,1.4,1.4v30.2C59,55.8,58.4,56.4,57.6,56.4z"
			/>
		<g>
			<path class="st0" d="M34.8,53.2c-0.1,0-0.1,0-0.2,0c-0.3-0.1-0.4-0.4-0.3-0.6l10.4-28.6c0.1-0.3,0.4-0.4,0.6-0.3
				c0.3,0.1,0.4,0.4,0.3,0.6L35.3,52.9C35.2,53.2,35,53.2,34.8,53.2z"/>
		</g>
	</g>
</g>
</svg>
