<svg xmlns="http://www.w3.org/2000/svg" viewBox="0 0 80 80"><defs><style>.cls-1{fill:#404a4c;}</style></defs><title>Nimble_Final_icons</title><g id="audio_icon"><path class="cls-1" d="M38.76,27.72a.49.49,0,0,0-.49,0l-10.44,6H21.45A1.45,1.45,0,0,0,20,35.19v9.62a1.45,1.45,0,0,0,1.45,1.45h6.39l10.44,6a.49.49,0,0,0,.73-.42V28.14A.49.49,0,0,0,38.76,27.72ZM38,51l-9.86-5.69a.5.5,0,0,0-.24-.05H21.45a.47.47,0,0,1-.47-.47V35.19a.47.47,0,0,1,.47-.47h6.33a.48.48,0,0,0,.39,0L38,29Z"/><path class="cls-1" d="M48.62,30a.49.49,0,1,0-.34.91c3,1.09,5,4.85,5,9.13s-2.07,8-5,9.13a.49.49,0,0,0,.17.95.48.48,0,0,0,.17,0c3.34-1.23,5.66-5.36,5.66-10S52,31.19,48.62,30Z"/><path class="cls-1" d="M44.68,33.25a.49.49,0,1,0-.34.91c1.88.69,3.19,3.09,3.19,5.83s-1.31,5.14-3.19,5.83a.49.49,0,0,0,.17.95.47.47,0,0,0,.17,0c2.25-.83,3.83-3.61,3.83-6.75S46.93,34.08,44.68,33.25Z"/><path class="cls-1" d="M52.64,26.92a.49.49,0,1,0-.34.91C56.26,29.3,59,34.3,59,40s-2.76,10.7-6.72,12.16a.49.49,0,0,0,.17.95.48.48,0,0,0,.17,0C57,51.48,60,46.1,60,40S57,28.52,52.64,26.92Z"/></g></svg>