<svg xmlns="http://www.w3.org/2000/svg" viewBox="0 0 80 80"><defs><style>.cls-1{fill:#404a4c;}</style></defs><title>Nimble_</title><g id="spacer_icon"><path class="cls-1" d="M18,24H62a.49.49,0,0,0,0-1H18a.49.49,0,0,0,0,1Z"/><path class="cls-1" d="M62,56H18a.49.49,0,0,0,0,1H62a.49.49,0,0,0,0-1Z"/><path class="cls-1" d="M45.16,34.84a.49.49,0,0,0,.69-.69l-5.5-5.5a.49.49,0,0,0-.69,0l-5.5,5.5a.49.49,0,1,0,.69.69l4.67-4.67V49.82l-4.67-4.67a.49.49,0,0,0-.69.69l5.5,5.5a.49.49,0,0,0,.69,0l5.5-5.5a.49.49,0,0,0-.69-.69l-4.67,4.67V30.18Z"/></g></svg>