<svg id="nimble_posts-list" xmlns="http://www.w3.org/2000/svg" viewBox="0 0 80 80"><defs><style>.cls-1{fill:#404a4c;}</style></defs><title>Nimble_posts-list_icon-01</title><path class="cls-1" d="M34.13,35H23.66a.81.81,0,0,0-.81.8v8.46a.81.81,0,0,0,.81.8H34.13a.8.8,0,0,0,.81-.8V35.77A.8.8,0,0,0,34.13,35ZM23.85,42.58l1.89-2.33,2,2.47a.54.54,0,0,0,.37.19.57.57,0,0,0,.38-.16l1.19-1.23L31.84,44h-8ZM33.94,44h-.79l-3.07-3.58a.53.53,0,0,0-.37-.18.49.49,0,0,0-.37.16l-1.18,1.22-2-2.51a.53.53,0,0,0-.78,0L23.85,41V36H33.94Z"/><path class="cls-1" d="M31.21,40.43a1.73,1.73,0,1,0-1.73-1.73A1.73,1.73,0,0,0,31.21,40.43Zm0-2.46a.73.73,0,0,1,0,1.46.73.73,0,0,1,0-1.46Z"/><path class="cls-1" d="M56.66,36.52h-18a.49.49,0,0,1,0-1h18a.49.49,0,0,1,0,1Z"/><path class="cls-1" d="M56.66,39.17h-18a.49.49,0,0,1,0-1h18a.49.49,0,1,1,0,1Z"/><path class="cls-1" d="M56.66,41.81h-18a.49.49,0,0,1,0-1h18a.49.49,0,1,1,0,1Z"/><path class="cls-1" d="M46.31,44.46H38.65a.49.49,0,0,1,0-1h7.66a.49.49,0,0,1,0,1Z"/><path class="cls-1" d="M34.13,21.25H23.66a.81.81,0,0,0-.81.8v8.46a.82.82,0,0,0,.81.81H34.13a.81.81,0,0,0,.81-.81V22.05A.8.8,0,0,0,34.13,21.25ZM23.85,28.86l1.89-2.33,2,2.47a.54.54,0,0,0,.37.19.46.46,0,0,0,.38-.16l1.19-1.23,2.16,2.52h-8Zm10.09,1.46h-.79l-3.07-3.59a.53.53,0,0,0-.37-.18.54.54,0,0,0-.37.16l-1.18,1.22-2-2.5a.51.51,0,0,0-.78,0l-1.5,1.85v-5H33.94Z"/><path class="cls-1" d="M31.21,26.71A1.73,1.73,0,1,0,29.48,25,1.73,1.73,0,0,0,31.21,26.71Zm0-2.46a.73.73,0,0,1,0,1.46.73.73,0,1,1,0-1.46Z"/><path class="cls-1" d="M56.66,22.8h-18a.49.49,0,0,1,0-1h18a.49.49,0,0,1,0,1Z"/><path class="cls-1" d="M56.66,25.45h-18a.49.49,0,0,1,0-1h18a.49.49,0,1,1,0,1Z"/><path class="cls-1" d="M56.66,28.09h-18a.49.49,0,1,1,0-1h18a.49.49,0,1,1,0,1Z"/><path class="cls-1" d="M46.31,30.74H38.65a.49.49,0,1,1,0-1h7.66a.49.49,0,1,1,0,1Z"/><path class="cls-1" d="M34.13,48.68H23.66a.82.82,0,0,0-.81.81V58a.81.81,0,0,0,.81.8H34.13a.8.8,0,0,0,.81-.8V49.49A.81.81,0,0,0,34.13,48.68ZM23.85,56.3,25.74,54l2,2.47a.49.49,0,0,0,.37.18.52.52,0,0,0,.38-.15l1.19-1.24,2.16,2.52h-8Zm10.09,1.45h-.79l-3.07-3.58a.49.49,0,0,0-.37-.18.58.58,0,0,0-.37.15l-1.18,1.23-2-2.51a.53.53,0,0,0-.78,0l-1.5,1.85v-5H33.94Z"/><path class="cls-1" d="M31.21,54.15a1.73,1.73,0,1,0-1.73-1.73A1.73,1.73,0,0,0,31.21,54.15Zm0-2.46a.73.73,0,0,1,0,1.46.73.73,0,0,1,0-1.46Z"/><path class="cls-1" d="M56.66,50.24h-18a.49.49,0,0,1,0-1h18a.49.49,0,0,1,0,1Z"/><path class="cls-1" d="M56.66,52.88h-18a.48.48,0,0,1-.49-.48.49.49,0,0,1,.49-.49h18a.49.49,0,0,1,.49.49A.48.48,0,0,1,56.66,52.88Z"/><path class="cls-1" d="M56.66,55.53h-18a.49.49,0,0,1,0-1h18a.49.49,0,1,1,0,1Z"/><path class="cls-1" d="M46.31,58.18H38.65a.49.49,0,0,1,0-1h7.66a.49.49,0,0,1,0,1Z"/></svg>