<svg id="nimble_img" xmlns="http://www.w3.org/2000/svg" viewBox="0 0 80 80"><defs><style>.cls-1,.cls-2{fill:#404a4c;}.cls-1{opacity:0.3;}</style></defs><title>Nimble_img_icon-01</title><path class="cls-1" d="M60.4,28.88A21.49,21.49,0,1,0,40,57.15a20.76,20.76,0,0,0,3.42-.28V54.38a1.37,1.37,0,1,1,2.74,0v1a1.41,1.41,0,0,1,1.36.38A21.46,21.46,0,0,0,60.4,28.88ZM53.14,51.52a.49.49,0,0,1-.07.7.48.48,0,0,1-.32.11.51.51,0,0,1-.39-.18L49,48a15.07,15.07,0,0,1-4.2,2.17,15.31,15.31,0,0,1-18.37-7.39l-3.34,4.28a.52.52,0,0,1-.71.08.5.5,0,0,1-.08-.7L26,41.78c-.18-.43-.35-.86-.5-1.3a15.31,15.31,0,1,1,29.05-9.65h0A15.32,15.32,0,0,1,49.8,47.39Z"/><path class="cls-2" d="M44,29.61a3.1,3.1,0,1,0,3.1,3.1A3.1,3.1,0,0,0,44,29.61Zm0,5.19a2.1,2.1,0,1,1,2.1-2.09A2.1,2.1,0,0,1,44,34.8Z"/><path class="cls-2" d="M54.52,30.83h0a15.31,15.31,0,1,0-29.05,9.65c.15.44.32.87.5,1.3l-3.65,4.67a.5.5,0,0,0,.08.7.52.52,0,0,0,.71-.08l3.34-4.28a15.31,15.31,0,0,0,18.37,7.39A15.07,15.07,0,0,0,49,48l3.34,4.14a.51.51,0,0,0,.39.18.48.48,0,0,0,.32-.11.49.49,0,0,0,.07-.7L49.8,47.39A15.32,15.32,0,0,0,54.52,30.83Zm-10,18.4A14.33,14.33,0,0,1,27.14,41.9l5.3-6.78,4.66,5.74a.52.52,0,0,0,.37.19.47.47,0,0,0,.38-.16l2.92-3,7.62,9.39A14.15,14.15,0,0,1,44.5,49.23Zm4.67-2.61-8-9.84a.52.52,0,0,0-.36-.19.48.48,0,0,0-.39.16l-2.92,3L32.82,34a.51.51,0,0,0-.39-.19A.55.55,0,0,0,32,34l-5.35,6.85c-.09-.23-.19-.46-.27-.7a14.3,14.3,0,1,1,27.15-9A14.33,14.33,0,0,1,49.17,46.62Z"/><path class="cls-2" d="M46.17,55.38v-1a1.37,1.37,0,1,0-2.74,0v4.84L43,58.66A1.37,1.37,0,1,0,40.59,60L42,62.52c.66,1.15,1.61,3,1.62,3.06a.49.49,0,0,0,.45.27H50a.52.52,0,0,0,.21,0c.52-.23.86-2.41.92-2.92h0a9.19,9.19,0,0,0,.2-1.32c0-.5,0-3.39,0-3.39h0A1.38,1.38,0,0,0,50,56.8a1.28,1.28,0,0,0-.48.09,1.42,1.42,0,0,0-1.74-.73,1.26,1.26,0,0,0-.28-.4A1.41,1.41,0,0,0,46.17,55.38Zm.75,1.32v2.63a.5.5,0,0,0,.5.5.51.51,0,0,0,.5-.5V57.42a.37.37,0,0,1,.37-.35.37.37,0,0,1,.37.37v2.35a.51.51,0,0,0,.5.5.5.5,0,0,0,.5-.5V58.15a.38.38,0,0,1,.75,0c0,.1,0,2.88,0,3.37a8.36,8.36,0,0,1-.18,1.16c-.15.79-.34,1.73-.47,2.15H44.39c-.29-.57-1-1.91-1.5-2.83l-1.44-2.49a.37.37,0,0,1,.14-.51.42.42,0,0,1,.56.2l1.28,1.57a.64.64,0,0,0,.76.05.51.51,0,0,0,.24-.43v-6a.37.37,0,0,1,.74,0v3.93a.5.5,0,0,0,.5.5.5.5,0,0,0,.5-.5h0V56.66a.38.38,0,0,1,.75,0Z"/></svg>