<svg  viewBox="0 0 150 150" fill="none" xmlns="http://www.w3.org/2000/svg">
<path d="M59.7 90.7313L60 85.2563L55.8188 84.975C55.1119 84.89 54.395 84.9562 53.7156 85.1691C53.0362 85.3821 52.4098 85.7371 51.878 86.2104C51.3461 86.6837 50.9209 87.2647 50.6306 87.9148C50.3402 88.5649 50.1913 89.2693 50.1938 89.9813V91.4438L48.1125 91.3125L47.7563 96.9375L49.8375 97.0688L49.1813 107.588L55.425 107.981L55.9875 97.5L58.8563 97.6875L59.775 92.0625L56.25 91.875V90.5438L59.7 90.7313ZM57.5813 93.75L57.2813 95.625L54.2438 95.4375L53.5875 105.956L51.075 105.806L51.7313 95.2875L49.65 95.1563L49.7625 93.2813L51.8438 93.4125L52.05 90.075C52.0347 89.5994 52.1255 89.1263 52.3158 88.69C52.5061 88.2538 52.7911 87.8655 53.1501 87.5531C53.5092 87.2407 53.9333 87.0122 54.3916 86.8841C54.8499 86.756 55.331 86.7316 55.8 86.8125L58.125 87L58.0125 88.7438H56.5875C56.332 88.7284 56.076 88.7655 55.8354 88.8529C55.5947 88.9402 55.3745 89.0759 55.1883 89.2515C55.0021 89.4272 54.8539 89.6391 54.7527 89.8743C54.6515 90.1094 54.5995 90.3628 54.6 90.6188L54.375 93.6L57.5813 93.75Z" fill="#404A4C"/>
<path d="M38.55 73.0125H38.925L68.4375 70.4438C69.019 70.397 69.5852 70.2342 70.1027 69.9651C70.6202 69.696 71.0786 69.326 71.4509 68.8768C71.8231 68.4277 72.1016 67.9086 72.27 67.3501C72.4384 66.7916 72.4932 66.205 72.4313 65.625L70.1063 38.9438C70.0061 37.7903 69.4523 36.7238 68.5663 35.9785C67.6804 35.2332 66.5348 34.87 65.3813 34.9688L35.8688 37.5C35.2943 37.5472 34.7348 37.7076 34.2226 37.972C33.7104 38.2363 33.2555 38.5995 32.8843 39.0404C32.5131 39.4814 32.2327 39.9915 32.0595 40.5412C31.8863 41.091 31.8236 41.6696 31.875 42.2438L34.1813 69.0188C34.2754 70.1112 34.7769 71.1284 35.5862 71.8682C36.3955 72.6081 37.4535 73.0165 38.55 73.0125ZM36.0375 39.375L65.625 36.825H65.8313C66.4572 36.8272 67.0597 37.0629 67.521 37.486C67.9822 37.9091 68.269 38.4891 68.325 39.1125L70.6312 65.8875C70.6884 66.5464 70.4815 67.201 70.0561 67.7074C69.6306 68.2137 69.0214 68.5303 68.3625 68.5875L38.775 71.1188C38.1183 71.166 37.469 70.9555 36.9649 70.532C36.4608 70.1084 36.1416 69.5051 36.075 68.85L33.75 42.075C33.7218 41.7473 33.7586 41.4172 33.8585 41.1038C33.9584 40.7905 34.1192 40.4999 34.3319 40.249C34.5445 39.998 34.8046 39.7916 35.0974 39.6416C35.3901 39.4916 35.7096 39.401 36.0375 39.375Z" fill="#404A4C"/>
<path d="M69.375 79.5L39.8062 77.625C38.6513 77.5582 37.5168 77.9501 36.6494 78.7157C35.7821 79.4812 35.2522 80.5582 35.175 81.7125L33.4875 108.525C33.4207 109.68 33.8126 110.814 34.5781 111.682C35.3437 112.549 36.4207 113.079 37.575 113.156L67.1438 115.031H67.5C68.6115 115.034 69.6822 114.612 70.4938 113.853C71.3055 113.093 71.7972 112.053 71.8688 110.944L73.5563 84.1313C73.5891 83.5519 73.5067 82.9717 73.3137 82.4244C73.1208 81.8771 72.8213 81.3735 72.4324 80.9428C72.0435 80.5121 71.573 80.1628 71.0482 79.9151C70.5234 79.6674 69.9547 79.5264 69.375 79.5ZM69.9 110.831C69.881 111.158 69.7972 111.478 69.6537 111.772C69.5101 112.067 69.3096 112.33 69.0637 112.546C68.8177 112.762 68.5314 112.927 68.2211 113.032C67.9109 113.137 67.5829 113.179 67.2562 113.156L37.6875 111.281C37.0627 111.22 36.484 110.925 36.0669 110.456C35.6498 109.987 35.4251 109.378 35.4375 108.75L37.125 81.9375C37.1461 81.6115 37.2315 81.2929 37.3763 81C37.5211 80.7072 37.7225 80.4459 37.9687 80.2313C38.2188 80 38.5156 79.8251 38.8391 79.7184C39.1626 79.6117 39.5051 79.5755 39.8437 79.6125L69.375 81.375C70.0335 81.4184 70.6479 81.721 71.0837 82.2165C71.5195 82.7121 71.7411 83.3601 71.7 84.0188L69.9 110.831Z" fill="#404A4C"/>
<path d="M117.131 57.2625C116.768 56.8191 116.322 56.4516 115.816 56.1813C115.311 55.9111 114.758 55.7432 114.188 55.6875L84.675 52.875C83.5223 52.7705 82.375 53.1256 81.483 53.8631C80.591 54.6006 80.0265 55.6607 79.9125 56.8125L77.3625 83.5688C77.2579 84.7214 77.6131 85.8687 78.3506 86.7608C79.0881 87.6528 80.1482 88.2173 81.3 88.3313L110.794 91.1438H111.206C112.292 91.1397 113.338 90.7329 114.142 90.0021C114.946 89.2713 115.45 88.2684 115.556 87.1875L118.125 60.4688C118.18 59.8951 118.12 59.3163 117.95 58.7659C117.779 58.2155 117.501 57.7045 117.131 57.2625ZM113.681 87.0375C113.651 87.3644 113.555 87.682 113.401 87.9717C113.246 88.2614 113.036 88.5175 112.781 88.725C112.522 88.9395 112.223 89.0997 111.901 89.1964C111.579 89.293 111.241 89.324 110.906 89.2875L81.4125 86.475C81.0862 86.4444 80.7691 86.3498 80.4793 86.1966C80.1896 86.0434 79.9329 85.8346 79.7239 85.5821C79.5149 85.3295 79.3578 85.0383 79.2615 84.725C79.1651 84.4117 79.1315 84.0825 79.1625 83.7562L81.7875 57C81.8181 56.6737 81.9127 56.3566 82.0659 56.0668C82.2191 55.7771 82.4279 55.5204 82.6804 55.3114C82.933 55.1024 83.2242 54.9453 83.5375 54.849C83.8508 54.7526 84.18 54.719 84.5063 54.75L114 57.5625C114.326 57.5931 114.643 57.6877 114.933 57.8409C115.223 57.9941 115.48 58.2029 115.689 58.4555C115.898 58.708 116.055 58.9992 116.151 59.3125C116.247 59.6258 116.281 59.955 116.25 60.2813L113.681 87.0375Z" fill="#404A4C"/>
<path d="M102.806 61.6125L94.7063 60.8438C93.821 60.7584 92.9276 60.8484 92.0771 61.1085C91.2267 61.3686 90.4358 61.7938 89.7497 62.3597C89.0636 62.9256 88.4958 63.6212 88.0787 64.4067C87.6616 65.1922 87.4033 66.0522 87.3188 66.9375L86.55 75C86.4489 75.8941 86.527 76.7993 86.7798 77.6629C87.0327 78.5264 87.4551 79.3308 88.0225 80.0292C88.5899 80.7275 89.2909 81.3057 90.0843 81.7299C90.8778 82.1542 91.7479 82.416 92.6438 82.5L100.744 83.2688C101.629 83.3541 102.522 83.2641 103.373 83.004C104.223 82.7439 105.014 82.3187 105.7 81.7528C106.386 81.1869 106.954 80.4913 107.371 79.7058C107.788 78.9203 108.047 78.0603 108.131 77.175L108.9 69.075C108.996 68.1839 108.914 67.2826 108.658 66.4234C108.403 65.5642 107.98 64.7643 107.413 64.0701C106.846 63.3759 106.147 62.8011 105.356 62.3792C104.565 61.9574 103.699 61.6968 102.806 61.6125ZM106.106 76.875C106.047 77.4956 105.867 78.0986 105.575 78.6494C105.283 79.2002 104.885 79.6881 104.405 80.0851C103.924 80.4822 103.37 80.7806 102.774 80.9633C102.178 81.146 101.552 81.2095 100.931 81.15L92.8313 80.3813C92.2106 80.3225 91.6077 80.142 91.0569 79.85C90.506 79.5581 90.0182 79.1605 89.6211 78.6798C89.2241 78.1992 88.9257 77.645 88.743 77.049C88.5603 76.453 88.4968 75.8268 88.5563 75.2063L89.325 67.1063C89.3838 66.4856 89.5643 65.8827 89.8562 65.3319C90.1482 64.781 90.5458 64.2932 91.0264 63.8961C91.507 63.4991 92.0612 63.2007 92.6572 63.018C93.2533 62.8353 93.8795 62.7718 94.5 62.8313L102.6 63.6C103.224 63.6586 103.83 63.8403 104.384 64.1346C104.937 64.429 105.427 64.8301 105.825 65.3148C106.222 65.7995 106.52 66.3581 106.7 66.9585C106.88 67.5588 106.94 68.189 106.875 68.8125L106.106 76.875Z" fill="#404A4C"/>
<path d="M98.25 66.6187C97.1829 66.516 96.1093 66.732 95.1651 67.2396C94.2208 67.7471 93.4483 68.5234 92.9453 69.4701C92.4423 70.4167 92.2314 71.4914 92.3393 72.558C92.4472 73.6245 92.8691 74.6352 93.5515 75.4619C94.2339 76.2887 95.1462 76.8945 96.173 77.2026C97.1998 77.5108 98.2949 77.5074 99.3198 77.193C100.345 76.8786 101.253 76.2672 101.931 75.4363C102.608 74.6054 103.024 73.5922 103.125 72.525C103.261 71.0955 102.824 69.6706 101.91 68.5631C100.996 67.4557 99.6793 66.7564 98.25 66.6187ZM97.5 75.3937C96.8351 75.3206 96.2067 75.0526 95.6936 74.6234C95.1805 74.1942 94.8057 73.623 94.6163 72.9814C94.4269 72.3399 94.4312 71.6567 94.6289 71.0177C94.8265 70.3786 95.2086 69.8122 95.7271 69.3896C96.2456 68.967 96.8774 68.7071 97.5432 68.6425C98.209 68.5778 98.879 68.7114 99.4691 69.0264C100.059 69.3414 100.543 69.8237 100.86 70.4128C101.177 71.0019 101.313 71.6715 101.25 72.3375C101.208 72.7858 101.077 73.2212 100.865 73.6184C100.653 74.0156 100.364 74.3666 100.015 74.6511C99.6661 74.9355 99.264 75.1477 98.8322 75.2752C98.4004 75.4027 97.9475 75.443 97.5 75.3937Z" fill="#404A4C"/>
<path d="M104.81 66.8387C104.848 66.4366 104.553 66.0796 104.151 66.0412C103.749 66.0027 103.392 66.2975 103.354 66.6995C103.315 67.1015 103.61 67.4586 104.012 67.497C104.414 67.5355 104.771 67.2407 104.81 66.8387Z" fill="#404A4C"/>
<path d="M46.5429 45.0463H43.5471L50.0903 52.6165L42.3929 62.9191H48.4184L53.1412 56.6722L58.5387 62.9191H61.5387L54.5415 54.8205L61.9206 45.0463H55.7423L51.4778 50.7561L46.5429 45.0463ZM47.5952 61.106H45.9361L56.6462 46.7648H58.4284L47.5952 61.106Z" fill="#404A4C"/>
</svg>
