<?xml version="1.0" encoding="utf-8"?>
<!-- Generator: Adobe Illustrator 23.0.4, SVG Export Plug-In . SVG Version: 6.00 Build 0)  -->
<svg version="1.1" id="tabs_x5F_icon" xmlns="http://www.w3.org/2000/svg" xmlns:xlink="http://www.w3.org/1999/xlink" x="0px"
	 y="0px" viewBox="0 0 80 80" style="enable-background:new 0 0 80 80;" xml:space="preserve">
<style type="text/css">
	.st0{fill:#404A4C;}
</style>
<g>
	<g>
		<path class="st0" d="M45.4,29.1h-0.8v-4.2c0-0.3-0.2-0.5-0.5-0.5H32.9c-0.3,0-0.5,0.2-0.5,0.5v4.2h-0.8v-4.2
			c0-0.7,0.6-1.3,1.3-1.3h11.2c0.7,0,1.3,0.6,1.3,1.3V29.1z"/>
		<path class="st0" d="M60.4,29.1h-0.8v-4.2c0-0.3-0.2-0.5-0.5-0.5H47.9c-0.3,0-0.5,0.2-0.5,0.5v4.2h-0.8v-4.2
			c0-0.7,0.6-1.3,1.3-1.3h11.2c0.7,0,1.3,0.6,1.3,1.3V29.1z"/>
		<path class="st0" d="M61.9,56.4H18.1c-0.8,0-1.5-0.7-1.5-1.5v-30c0-0.7,0.6-1.3,1.3-1.3h11.2c0.7,0,1.3,0.6,1.3,1.3v3.9h31.5
			c0.8,0,1.5,0.7,1.5,1.5v24.6C63.4,55.7,62.7,56.4,61.9,56.4z M17.9,24.4c-0.3,0-0.5,0.2-0.5,0.5v30c0,0.4,0.3,0.7,0.7,0.7h43.8
			c0.4,0,0.7-0.3,0.7-0.7V30.3c0-0.4-0.3-0.7-0.7-0.7H29.6v-4.7c0-0.3-0.2-0.5-0.5-0.5H17.9z"/>
	</g>
</g>
</svg>
