<?xml version="1.0" encoding="utf-8"?>
<!-- Generator: Adobe Illustrator 23.0.4, SVG Export Plug-In . SVG Version: 6.00 Build 0)  -->
<svg version="1.1" id="icon-accordion" xmlns="http://www.w3.org/2000/svg" xmlns:xlink="http://www.w3.org/1999/xlink" x="0px"
	 y="0px" viewBox="0 0 80 80" style="enable-background:new 0 0 80 80;" xml:space="preserve">
<style type="text/css">
	.st0{fill:#404A4C;}
	.st1{display:none;}
	.st2{display:inline;fill:#404A4C;}
</style>
<g>
	<path class="st0" d="M57.8,29.4H22.2c-0.6,0-1.2-0.5-1.2-1.2V23c0-0.6,0.5-1.2,1.2-1.2h35.5c0.6,0,1.2,0.5,1.2,1.2v5.3
		C58.9,28.9,58.4,29.4,57.8,29.4z M22.2,22.8c-0.1,0-0.2,0.1-0.2,0.2v5.3c0,0.1,0.1,0.2,0.2,0.2h35.5c0.1,0,0.2-0.1,0.2-0.2V23
		c0-0.1-0.1-0.2-0.2-0.2H22.2z"/>
	<path class="st0" d="M57.8,58.2H22.2c-0.6,0-1.2-0.5-1.2-1.2v-5.3c0-0.6,0.5-1.2,1.2-1.2h35.5c0.6,0,1.2,0.5,1.2,1.2V57
		C58.9,57.7,58.4,58.2,57.8,58.2z M22.2,51.6c-0.1,0-0.2,0.1-0.2,0.2V57c0,0.1,0.1,0.2,0.2,0.2h35.5c0.1,0,0.2-0.1,0.2-0.2v-5.3
		c0-0.1-0.1-0.2-0.2-0.2H22.2z"/>
	<path class="st0" d="M57.6,48.6H22.4c-0.7,0-1.3-0.6-1.3-1.3V32.1c0-0.7,0.6-1.3,1.3-1.3h35.2c0.7,0,1.3,0.6,1.3,1.3v15.2
		C58.9,48,58.3,48.6,57.6,48.6z M22.4,31.8c-0.2,0-0.3,0.1-0.3,0.3v15.2c0,0.2,0.1,0.3,0.3,0.3h35.2c0.2,0,0.3-0.1,0.3-0.3V32.1
		c0-0.2-0.1-0.3-0.3-0.3H22.4z"/>
	<path class="st0" d="M56.2,25.1h-1.3v-1.4c0-0.1-0.1-0.2-0.2-0.2h-0.5c-0.1,0-0.2,0.1-0.2,0.2v1.4h-1.3c-0.1,0-0.2,0.1-0.2,0.2v0.5
		c0,0.1,0.1,0.2,0.2,0.2h1.3v1.4c0,0.1,0.1,0.2,0.2,0.2h0.5c0.1,0,0.2-0.1,0.2-0.2v-1.4h1.3c0.1,0,0.2-0.1,0.2-0.2v-0.5
		C56.5,25.2,56.3,25.1,56.2,25.1z"/>
	<path class="st0" d="M56.2,53.9h-1.3v-1.4c0-0.1-0.1-0.2-0.2-0.2h-0.5c-0.1,0-0.2,0.1-0.2,0.2v1.4h-1.3c-0.1,0-0.2,0.1-0.2,0.2v0.5
		c0,0.1,0.1,0.2,0.2,0.2h1.3v1.4c0,0.1,0.1,0.2,0.2,0.2h0.5c0.1,0,0.2-0.1,0.2-0.2v-1.4h1.3c0.1,0,0.2-0.1,0.2-0.2v-0.5
		C56.5,54,56.3,53.9,56.2,53.9z"/>
	<path class="st0" d="M56.2,34h-3.7c-0.1,0-0.2,0.1-0.2,0.2v0.5c0,0.1,0.1,0.2,0.2,0.2h3.7c0.1,0,0.2-0.1,0.2-0.2v-0.5
		C56.5,34.1,56.3,34,56.2,34z"/>
	<g class="st1">
		<path class="st2" d="M51.8,41.4H28.2c-0.2,0-0.4-0.2-0.4-0.4l0,0c0-0.2,0.2-0.4,0.4-0.4h23.6c0.2,0,0.4,0.2,0.4,0.4l0,0
			C52.2,41.2,52,41.4,51.8,41.4z"/>
		<path class="st2" d="M51.8,43.4H28.2c-0.2,0-0.4-0.2-0.4-0.4v0c0-0.2,0.2-0.4,0.4-0.4h23.6c0.2,0,0.4,0.2,0.4,0.4v0
			C52.2,43.2,52,43.4,51.8,43.4z"/>
		<path class="st2" d="M44.1,45.5H28.2c-0.2,0-0.4-0.2-0.4-0.4l0,0c0-0.2,0.2-0.4,0.4-0.4h15.9c0.2,0,0.4,0.2,0.4,0.4l0,0
			C44.4,45.3,44.3,45.5,44.1,45.5z"/>
	</g>
	<rect x="21.5" y="37.3" class="st0" width="37" height="1"/>
	<g>
		<path class="st0" d="M54.5,40.8h-29c-0.3,0-0.5-0.2-0.5-0.5s0.2-0.5,0.5-0.5h29c0.3,0,0.5,0.2,0.5,0.5S54.8,40.8,54.5,40.8z"/>
		<path class="st0" d="M54.5,43.4h-29c-0.3,0-0.5-0.2-0.5-0.5s0.2-0.5,0.5-0.5h29c0.3,0,0.5,0.2,0.5,0.5S54.8,43.4,54.5,43.4z"/>
		<path class="st0" d="M39.2,46.1H25.5c-0.3,0-0.5-0.2-0.5-0.5s0.2-0.5,0.5-0.5h13.7c0.3,0,0.5,0.2,0.5,0.5S39.4,46.1,39.2,46.1z"/>
	</g>
</g>
</svg>
