<svg xmlns="http://www.w3.org/2000/svg" viewBox="0 0 80 80"><defs><style>.cls-1{fill:#404a4c;}</style></defs><title>Nimble_Final_icons</title><g id="_2-columns_icon" data-name="2-columns_icon"><path class="cls-1" d="M37.49,55.16H19.06A1.56,1.56,0,0,1,17.5,53.6V26.4a1.56,1.56,0,0,1,1.56-1.56H37.49a1.56,1.56,0,0,1,1.56,1.56V53.6A1.56,1.56,0,0,1,37.49,55.16ZM19.06,25.82a.58.58,0,0,0-.58.58V53.6a.58.58,0,0,0,.58.58H37.49a.58.58,0,0,0,.58-.58V26.4a.58.58,0,0,0-.58-.58Z"/><path class="cls-1" d="M60.94,55.16H42.51a1.56,1.56,0,0,1-1.56-1.56V26.4a1.56,1.56,0,0,1,1.56-1.56H60.94A1.56,1.56,0,0,1,62.5,26.4V53.6A1.56,1.56,0,0,1,60.94,55.16ZM42.51,25.82a.58.58,0,0,0-.58.58V53.6a.58.58,0,0,0,.58.58H60.94a.58.58,0,0,0,.58-.58V26.4a.58.58,0,0,0-.58-.58Z"/></g></svg>