<?xml version="1.0" encoding="utf-8"?>
<!-- Generator: Adobe Illustrator 21.0.2, SVG Export Plug-In . SVG Version: 6.00 Build 0)  -->
<svg version="1.1" id="nimble_x5F_contact-form" xmlns="http://www.w3.org/2000/svg" xmlns:xlink="http://www.w3.org/1999/xlink"
	 x="0px" y="0px" viewBox="0 0 80 80" style="enable-background:new 0 0 80 80;" xml:space="preserve">
<style type="text/css">
	.st0{fill:#404A4C;}
</style>
<g>
	<g>
		<g>
			<path class="st0" d="M46,50.6H18.2c-0.7,0-1.2-0.6-1.2-1.2V30.6c0-0.7,0.6-1.2,1.2-1.2H46c0.7,0,1.2,0.6,1.2,1.2v18.8
				C47.2,50.1,46.7,50.6,46,50.6z M18.2,30.4c-0.1,0-0.2,0.1-0.2,0.2v18.8c0,0.1,0.1,0.2,0.2,0.2H46c0.1,0,0.2-0.1,0.2-0.2V30.6
				c0-0.1-0.1-0.2-0.2-0.2H18.2z"/>
		</g>
	</g>
	<path class="st0" d="M17.6,50.3c-0.1,0-0.3-0.1-0.4-0.2c-0.2-0.2-0.2-0.5,0-0.7l8.5-7.8c0.2-0.2,0.5-0.2,0.7,0s0.2,0.5,0,0.7
		L18,50.2C17.9,50.3,17.7,50.3,17.6,50.3z"/>
	<g>
		<path class="st0" d="M32.1,44.3c-0.7,0-1.4-0.3-1.9-0.8L17.8,31.1c-0.2-0.2-0.2-0.5,0-0.7s0.5-0.2,0.7,0l12.4,12.4
			c0.7,0.7,1.7,0.7,2.4,0l12.4-12.4c0.2-0.2,0.5-0.2,0.7,0s0.2,0.5,0,0.7L34,43.5C33.5,44.1,32.8,44.3,32.1,44.3z"/>
	</g>
	<path class="st0" d="M46.6,50.3c-0.1,0-0.2,0-0.3-0.1l-8.5-7.8c-0.2-0.2-0.2-0.5,0-0.7s0.5-0.2,0.7,0l8.5,7.8
		c0.2,0.2,0.2,0.5,0,0.7C46.9,50.2,46.7,50.3,46.6,50.3z"/>
	<path class="st0" d="M62.5,45.1H50.6c-0.3,0-0.5-0.2-0.5-0.5s0.2-0.5,0.5-0.5h11.9c0.3,0,0.5,0.2,0.5,0.5S62.8,45.1,62.5,45.1z"/>
	<path class="st0" d="M55,38.4h-4.3c-0.3,0-0.5-0.2-0.5-0.5s0.2-0.5,0.5-0.5H55c0.3,0,0.5,0.2,0.5,0.5S55.3,38.4,55,38.4z"/>
	<path class="st0" d="M58.4,41.8h-7.8c-0.3,0-0.5-0.2-0.5-0.5s0.2-0.5,0.5-0.5h7.8c0.3,0,0.5,0.2,0.5,0.5
		C58.9,41.5,58.7,41.8,58.4,41.8z"/>
</g>
</svg>
