<?xml version="1.0" encoding="utf-8"?>
<!-- Generator: Adobe Illustrator 23.0.4, SVG Export Plug-In . SVG Version: 6.00 Build 0)  -->
<svg version="1.1" id="shortcode_x5F_icon" xmlns="http://www.w3.org/2000/svg" xmlns:xlink="http://www.w3.org/1999/xlink" x="0px"
	 y="0px" viewBox="0 0 80 80" style="enable-background:new 0 0 80 80;" xml:space="preserve">
<style type="text/css">
	.st0{fill:#404A4C;}
</style>
<g>
	<g>
		<path class="st0" d="M27,59.5h-7.8c-0.9,0-1.6-0.7-1.6-1.6V22.1c0-0.9,0.7-1.6,1.6-1.6H27v1h-7.8c-0.3,0-0.6,0.3-0.6,0.6v35.8
			c0,0.3,0.3,0.6,0.6,0.6H27V59.5z"/>
		<path class="st0" d="M60.9,59.5H53v-1h7.8c0.3,0,0.6-0.3,0.6-0.6V22.1c0-0.3-0.3-0.6-0.6-0.6H53v-1h7.8c0.9,0,1.6,0.7,1.6,1.6
			v35.8C62.5,58.8,61.8,59.5,60.9,59.5z"/>
		<g>
			<path class="st0" d="M33.8,55.7c-0.1,0-0.1,0-0.2,0c-0.3-0.1-0.4-0.4-0.3-0.6l12.4-34c0.1-0.3,0.4-0.4,0.6-0.3
				c0.3,0.1,0.4,0.4,0.3,0.6l-12.4,34C34.2,55.5,34,55.7,33.8,55.7z"/>
		</g>
	</g>
</g>
</svg>
