<?xml version="1.0" encoding="utf-8"?>
<!-- Generator: Adobe Illustrator 23.0.4, SVG Export Plug-In . SVG Version: 6.00 Build 0)  -->
<svg version="1.1" id="icon-accordion" xmlns="http://www.w3.org/2000/svg" xmlns:xlink="http://www.w3.org/1999/xlink" x="0px"
	 y="0px" viewBox="0 0 80 80" style="enable-background:new 0 0 80 80;" xml:space="preserve">
<style type="text/css">
	.st0{fill:#404A4C;}
</style>
<g>
	<path class="st0" d="M64.1,25.4H15.9c-0.7,0-1.3-0.6-1.3-1.3v-7.2c0-0.7,0.6-1.3,1.3-1.3h48.2c0.7,0,1.3,0.6,1.3,1.3v7.2
		C65.4,24.8,64.8,25.4,64.1,25.4z M15.9,16.4c-0.3,0-0.5,0.2-0.5,0.5v7.2c0,0.3,0.2,0.5,0.5,0.5h48.2c0.3,0,0.5-0.2,0.5-0.5v-7.2
		c0-0.3-0.2-0.5-0.5-0.5H15.9z"/>
	<path class="st0" d="M64.1,64.4H15.9c-0.7,0-1.3-0.6-1.3-1.3v-7.2c0-0.7,0.6-1.3,1.3-1.3h48.2c0.7,0,1.3,0.6,1.3,1.3v7.2
		C65.4,63.8,64.8,64.4,64.1,64.4z M15.9,55.4c-0.3,0-0.5,0.2-0.5,0.5v7.2c0,0.3,0.2,0.5,0.5,0.5h48.2c0.3,0,0.5-0.2,0.5-0.5v-7.2
		c0-0.3-0.2-0.5-0.5-0.5H15.9z"/>
	<path class="st0" d="M63.9,51.4H16.1c-0.8,0-1.5-0.7-1.5-1.5V29.3c0-0.8,0.7-1.5,1.5-1.5h47.8c0.8,0,1.5,0.7,1.5,1.5v20.6
		C65.4,50.7,64.7,51.4,63.9,51.4z M16.1,28.6c-0.4,0-0.7,0.3-0.7,0.7v20.6c0,0.4,0.3,0.7,0.7,0.7h47.8c0.4,0,0.7-0.3,0.7-0.7V29.3
		c0-0.4-0.3-0.7-0.7-0.7H16.1z"/>
	<path class="st0" d="M62,20h-2v-2c0-0.1-0.1-0.1-0.2-0.1h-0.7c-0.1,0-0.2,0.1-0.2,0.1v2h-2c-0.1,0-0.2,0.1-0.2,0.1v0.7
		c0,0.1,0.1,0.2,0.2,0.2h2v2c0,0.1,0.1,0.2,0.2,0.2h0.7c0.1,0,0.2-0.1,0.2-0.2v-2h2c0.1,0,0.1-0.1,0.1-0.2v-0.7
		C62.1,20.1,62.1,20,62,20z"/>
	<path class="st0" d="M62,59h-2v-2c0-0.1-0.1-0.1-0.2-0.1h-0.7c-0.1,0-0.2,0.1-0.2,0.1v2h-2c-0.1,0-0.2,0.1-0.2,0.2v0.7
		c0,0.1,0.1,0.2,0.2,0.2h2v2c0,0.1,0.1,0.2,0.2,0.2h0.7c0.1,0,0.2-0.1,0.2-0.2v-2h2c0.1,0,0.1-0.1,0.1-0.2v-0.7
		C62.1,59.1,62.1,59,62,59z"/>
	<path class="st0" d="M62,32h-5c-0.1,0-0.2,0.1-0.2,0.2v0.7c0,0.1,0.1,0.2,0.2,0.2h5c0.1,0,0.1-0.1,0.1-0.2v-0.7
		C62.1,32.1,62.1,32,62,32z"/>
	<g>
		<path class="st0" d="M56,41.8H24c-0.3,0-0.5-0.2-0.5-0.5l0,0c0-0.3,0.2-0.5,0.5-0.5H56c0.3,0,0.5,0.2,0.5,0.5l0,0
			C56.5,41.6,56.3,41.8,56,41.8z"/>
		<path class="st0" d="M56,44.6H24c-0.3,0-0.5-0.2-0.5-0.5l0,0c0-0.3,0.2-0.5,0.5-0.5H56c0.3,0,0.5,0.2,0.5,0.5l0,0
			C56.5,44.4,56.3,44.6,56,44.6z"/>
		<path class="st0" d="M45.5,47.4H24c-0.3,0-0.5-0.2-0.5-0.5l0,0c0-0.3,0.2-0.5,0.5-0.5h21.5c0.3,0,0.5,0.2,0.5,0.5l0,0
			C46,47.2,45.8,47.4,45.5,47.4z"/>
	</g>
	<rect x="14.9" y="36.6" class="st0" width="50.2" height="0.8"/>
</g>
</svg>
