<svg xmlns="http://www.w3.org/2000/svg" viewBox="0 0 80 80"><defs><style>.cls-1{fill:#404a4c;}</style></defs><title>Nimble_</title><g id="featured_icon"><path class="cls-1" d="M29,42.34H18a.49.49,0,0,1,0-1H29a.49.49,0,0,1,0,1Z"/><path class="cls-1" d="M29,46.31H18a.49.49,0,0,1,0-1H29a.49.49,0,0,1,0,1Z"/><path class="cls-1" d="M23.65,50.28H18a.49.49,0,0,1,0-1h5.66a.49.49,0,0,1,0,1Z"/><path class="cls-1" d="M45.5,42.34h-11a.49.49,0,1,1,0-1h11a.49.49,0,1,1,0,1Z"/><path class="cls-1" d="M45.5,46.31h-11a.49.49,0,1,1,0-1h11a.49.49,0,1,1,0,1Z"/><path class="cls-1" d="M40.16,50.28H34.5a.49.49,0,1,1,0-1h5.66a.49.49,0,1,1,0,1Z"/><path class="cls-1" d="M62,42.34H51a.49.49,0,0,1,0-1H62a.49.49,0,0,1,0,1Z"/><path class="cls-1" d="M62,46.31H51a.49.49,0,0,1,0-1H62a.49.49,0,0,1,0,1Z"/><path class="cls-1" d="M56.66,50.28H51a.49.49,0,0,1,0-1h5.66a.49.49,0,0,1,0,1Z"/><path class="cls-1" d="M29,38.65H18a.49.49,0,0,1-.49-.49V30.21a.49.49,0,0,1,.49-.49H29a.49.49,0,0,1,.49.49v7.95A.49.49,0,0,1,29,38.65Zm-10.52-1h10v-7h-10Z"/><path class="cls-1" d="M45.5,38.65h-11a.49.49,0,0,1-.49-.49V30.21a.49.49,0,0,1,.49-.49h11a.49.49,0,0,1,.49.49v7.95A.49.49,0,0,1,45.5,38.65ZM35,37.67H45v-7H35Z"/><path class="cls-1" d="M62,38.65H51a.49.49,0,0,1-.49-.49V30.21a.49.49,0,0,1,.49-.49H62a.49.49,0,0,1,.49.49v7.95A.49.49,0,0,1,62,38.65Zm-10.52-1h10v-7h-10Z"/></g></svg>