<svg xmlns="http://www.w3.org/2000/svg" viewBox="0 0 80 80"><defs><style>.cls-1{fill:#404a4c;}</style></defs><title>Nimble_Final_icons</title><g id="slideshow_icon"><path class="cls-1" d="M48,31.09a3.39,3.39,0,1,0,3.39,3.39A3.39,3.39,0,0,0,48,31.09ZM48,37a2.5,2.5,0,1,1,2.5-2.5A2.5,2.5,0,0,1,48,37Z"/><path class="cls-1" d="M62.37,39.69l-2.22-2.22a.44.44,0,1,0-.63.63l1.9,1.9-1.9,1.9a.44.44,0,0,0,.63.63l2.22-2.22A.44.44,0,0,0,62.37,39.69Z"/><path class="cls-1" d="M20.47,37.47a.44.44,0,0,0-.63,0l-2.22,2.22a.44.44,0,0,0,0,.63l2.22,2.22a.44.44,0,0,0,.63-.63L18.57,40l1.9-1.9A.44.44,0,0,0,20.47,37.47Z"/><path class="cls-1" d="M56.34,30.49H53.85v-.63a1.18,1.18,0,0,0-1.18-1.18H27.54a1.18,1.18,0,0,0-1.18,1.18v.63H23.87a1.06,1.06,0,0,0-1.06,1.06V48.45a1.06,1.06,0,0,0,1.06,1.06h2.49v.63a1.18,1.18,0,0,0,1.18,1.18H52.67a1.18,1.18,0,0,0,1.18-1.18v-.63h2.49a1.06,1.06,0,0,0,1.06-1.06V31.55A1.06,1.06,0,0,0,56.34,30.49ZM23.87,48.62a.17.17,0,0,1-.17-.17V31.55a.17.17,0,0,1,.17-.17h2.49V48.62Zm3.38,1.52V45.93l5.29-6.52L37.92,46a.44.44,0,0,0,.33.16.46.46,0,0,0,.34-.14L42,42.51l6.79,7.92H27.54A.3.3,0,0,1,27.25,50.14Zm25.71,0a.3.3,0,0,1-.29.29H50l-7.6-8.87a.44.44,0,0,0-.32-.16.51.51,0,0,0-.33.14L38.29,45.1l-5.42-6.68a.46.46,0,0,0-.69,0l-4.94,6.1V29.86a.3.3,0,0,1,.29-.29H52.67a.3.3,0,0,1,.29.29V50.14Zm3.55-1.69a.17.17,0,0,1-.17.17H53.85V31.38h2.49a.17.17,0,0,1,.17.17Z"/></g></svg>