<svg xmlns="http://www.w3.org/2000/svg" viewBox="0 0 80 80"><defs><style>.cls-1{fill:#404a4c;}</style></defs><title>Nimble_Final_icons</title><g id="gallery_icon"><path class="cls-1" d="M56.23,31H54.5V29.32A1.28,1.28,0,0,0,53.23,28H51.5V26.32A1.28,1.28,0,0,0,50.23,25H23.77a1.28,1.28,0,0,0-1.28,1.28V47.68A1.28,1.28,0,0,0,23.77,49H25.5v1.73A1.28,1.28,0,0,0,26.77,52H28.5v1.73A1.28,1.28,0,0,0,29.77,55H56.23a1.28,1.28,0,0,0,1.27-1.27V32.32A1.28,1.28,0,0,0,56.23,31ZM23.77,26H50.23a.28.28,0,0,1,.27.28V47.68a.28.28,0,0,1-.27.27H47.4l-8-9.33a.5.5,0,0,0-.37-.17.53.53,0,0,0-.37.15L35.1,42.32l-5.67-7a.51.51,0,0,0-.4-.17h0a.54.54,0,0,0-.36.16l0,0h0l-5.11,6.3V26.32A.28.28,0,0,1,23.77,26ZM23.5,47.68V43.25L29,36.43l5.64,7a.5.5,0,0,0,.37.19.54.54,0,0,0,.38-.15L39,39.69,46.08,48H23.77A.28.28,0,0,1,23.5,47.68Zm3,3V49H50.23a1.28,1.28,0,0,0,1.27-1.27V29h1.73a.28.28,0,0,1,.27.28V50.68a.28.28,0,0,1-.27.27H26.77A.28.28,0,0,1,26.5,50.68Zm30,3a.28.28,0,0,1-.27.27H29.77a.28.28,0,0,1-.28-.27V52H53.23a1.28,1.28,0,0,0,1.27-1.27V32h1.73a.28.28,0,0,1,.27.28Z"/><path class="cls-1" d="M45.36,34.79a3.59,3.59,0,0,0,3.56-3.18s0,0,0,0v0a2.44,2.44,0,0,0,0-.33,3.6,3.6,0,0,0-7.2,0,3.24,3.24,0,0,0,0,.41A3.59,3.59,0,0,0,45.36,34.79Zm0-6.2a2.6,2.6,0,0,1,2.6,2.6,1.44,1.44,0,0,1,0,.2v.1a2.58,2.58,0,0,1-5.13,0v-.11a1.35,1.35,0,0,1,0-.19A2.6,2.6,0,0,1,45.36,28.59Z"/></g></svg>