<svg xmlns="http://www.w3.org/2000/svg" viewBox="0 0 80 80"><defs><style>.cls-1{fill:#404a4c;}</style></defs><title>Nimble_</title><g id="divider_icon"><path class="cls-1" d="M62,39.51H18a.49.49,0,1,0,0,1H62a.49.49,0,1,0,0-1Z"/><path class="cls-1" d="M34.5,24.26a.49.49,0,0,0,.35-.14l4.67-4.67v15a.49.49,0,1,0,1,0v-15l4.67,4.67a.49.49,0,0,0,.69-.69l-5.5-5.5a.49.49,0,0,0-.69,0l-5.5,5.5a.49.49,0,0,0,.35.83Z"/><path class="cls-1" d="M45.16,55.88l-4.67,4.67v-15a.49.49,0,1,0-1,0v15l-4.67-4.67a.49.49,0,0,0-.69.69l5.5,5.5a.49.49,0,0,0,.69,0l5.5-5.5a.49.49,0,0,0-.69-.69Z"/></g></svg>