<svg xmlns="http://www.w3.org/2000/svg" viewBox="0 0 80 80"><defs><style>.cls-1{fill:#404a4c;}</style></defs><title>Nimble_Final_icons</title><g id="quote_icon"><path class="cls-1" d="M24,26.85a13.49,13.49,0,0,0-4.87,4.57,12.12,12.12,0,0,0-1.68,6.44,7.28,7.28,0,0,0,1.07,4.27,3.68,3.68,0,0,0,3.16,1.57,3.61,3.61,0,0,0,2.6-1,3.67,3.67,0,0,0,1-2.76,3.18,3.18,0,0,0-1.17-2.64,4,4,0,0,0-2.5-.88,6.59,6.59,0,0,1,1-3.4A11.53,11.53,0,0,1,26,30l.4-.26-1.92-3.13Zm-2.12,5.62A7.86,7.86,0,0,0,20.71,37v.68l.64-.21a1.38,1.38,0,0,1,.38,0,2.93,2.93,0,0,1,1.87.67,2.22,2.22,0,0,1,.79,1.87A2.71,2.71,0,0,1,23.65,42a2.63,2.63,0,0,1-1.92.72,2.72,2.72,0,0,1-2.37-1.16,6.36,6.36,0,0,1-.89-3.7A11.16,11.16,0,0,1,20,31.92a12.28,12.28,0,0,1,4.12-4l.93,1.51A12,12,0,0,0,21.92,32.46Z"/><path class="cls-1" d="M34.51,26.85a13.48,13.48,0,0,0-4.87,4.57A12.12,12.12,0,0,0,28,37.85,7.27,7.27,0,0,0,29,42.12a3.68,3.68,0,0,0,3.16,1.57,3.6,3.6,0,0,0,2.6-1,3.67,3.67,0,0,0,1-2.76,3.18,3.18,0,0,0-1.17-2.64,3.92,3.92,0,0,0-2.5-.88,6.59,6.59,0,0,1,1-3.4,11.53,11.53,0,0,1,3.25-3l.4-.26-1.92-3.13Zm-2.12,5.62A7.86,7.86,0,0,0,31.17,37v.68l.64-.21a1.33,1.33,0,0,1,.38,0,2.92,2.92,0,0,1,1.87.67,2.22,2.22,0,0,1,.8,1.87A2.7,2.7,0,0,1,34.11,42a2.62,2.62,0,0,1-1.92.72,2.71,2.71,0,0,1-2.37-1.16,6.36,6.36,0,0,1-.89-3.7,11.16,11.16,0,0,1,1.53-5.93,12.28,12.28,0,0,1,4.11-4l.93,1.51A12,12,0,0,0,32.38,32.46Z"/><path class="cls-1" d="M61.4,37.91a3.68,3.68,0,0,0-3.13-1.6,3.55,3.55,0,0,0-2.6,1,3.78,3.78,0,0,0-1,2.78,3.14,3.14,0,0,0,1.13,2.58,3.87,3.87,0,0,0,2.48.88,6.81,6.81,0,0,1-1,3.46,11.12,11.12,0,0,1-3.22,3l-.39.26,1.86,3.07.42-.24a13.87,13.87,0,0,0,4.89-4.53,11.81,11.81,0,0,0,1.71-6.41A7.27,7.27,0,0,0,61.4,37.91ZM60,48.1a12.68,12.68,0,0,1-4.15,4l-.87-1.45a11.62,11.62,0,0,0,3.11-3A8.14,8.14,0,0,0,59.23,43v-.68l-.65.22a1,1,0,0,1-.32,0,2.88,2.88,0,0,1-1.89-.66,2.19,2.19,0,0,1-.77-1.82A2.8,2.8,0,0,1,56.35,38a2.57,2.57,0,0,1,1.91-.75,2.72,2.72,0,0,1,2.34,1.19,6.35,6.35,0,0,1,.92,3.72A10.84,10.84,0,0,1,60,48.1Z"/><path class="cls-1" d="M47.8,36.31a3.55,3.55,0,0,0-2.6,1,3.78,3.78,0,0,0-1,2.78,3.15,3.15,0,0,0,1.13,2.58,3.87,3.87,0,0,0,2.48.88,6.81,6.81,0,0,1-1,3.46,11.1,11.1,0,0,1-3.22,3l-.39.26L45,53.39l.42-.24a13.88,13.88,0,0,0,4.9-4.53A11.81,11.81,0,0,0,52,42.21a7.27,7.27,0,0,0-1.1-4.3A3.68,3.68,0,0,0,47.8,36.31ZM49.5,48.1a12.68,12.68,0,0,1-4.15,4l-.87-1.45a11.62,11.62,0,0,0,3.11-3A8.14,8.14,0,0,0,48.77,43v-.68l-.65.22a1,1,0,0,1-.32,0,2.88,2.88,0,0,1-1.89-.66,2.19,2.19,0,0,1-.77-1.82A2.8,2.8,0,0,1,45.89,38a2.57,2.57,0,0,1,1.91-.75,2.72,2.72,0,0,1,2.34,1.19,6.35,6.35,0,0,1,.92,3.72A10.85,10.85,0,0,1,49.5,48.1Z"/></g></svg>