<svg xmlns="http://www.w3.org/2000/svg" viewBox="0 0 80 80"><defs><style>.cls-1{fill:#404a4c;}</style></defs><title>Nimble_</title><g id="image_icon"><path class="cls-1" d="M60.79,58.5H19.21a1.71,1.71,0,0,1-1.71-1.71V23.21a1.71,1.71,0,0,1,1.71-1.71H60.79a1.71,1.71,0,0,1,1.71,1.71V56.79A1.71,1.71,0,0,1,60.79,58.5Zm-41.59-36a.73.73,0,0,0-.73.73V56.79a.73.73,0,0,0,.73.73H60.79a.73.73,0,0,0,.73-.73V23.21a.73.73,0,0,0-.73-.73Z"/><path class="cls-1" d="M53.14,36.23a5.36,5.36,0,1,1,5.36-5.36A5.37,5.37,0,0,1,53.14,36.23Zm0-9.74a4.38,4.38,0,1,0,4.38,4.38A4.39,4.39,0,0,0,53.14,26.48Z"/><path class="cls-1" d="M56,58.5a.49.49,0,0,1-.37-.17L43.16,43.79l-5.85,6.1a.55.55,0,0,1-.37.15.49.49,0,0,1-.36-.18l-9.1-11.23-9.1,11.23a.49.49,0,1,1-.76-.62l9.48-11.7a.51.51,0,0,1,.76,0L37,48.81l5.84-6.08a.49.49,0,0,1,.72,0l12.8,14.94a.49.49,0,0,1-.37.81Z"/></g></svg>