<svg xmlns="http://www.w3.org/2000/svg" viewBox="0 0 80 80"><defs><style>.cls-1{fill:#404a4c;}</style></defs><title>Nimble_Final_icons</title><g id="_3-columns_icon" data-name="3-columns_icon"><path class="cls-1" d="M29.81,24.84H19.06A1.56,1.56,0,0,0,17.5,26.4V53.6a1.56,1.56,0,0,0,1.56,1.56H29.81a1.56,1.56,0,0,0,1.56-1.56V26.4A1.56,1.56,0,0,0,29.81,24.84ZM30.4,53.6a.58.58,0,0,1-.58.58H19.06a.58.58,0,0,1-.58-.58V26.4a.58.58,0,0,1,.58-.58H29.81a.58.58,0,0,1,.58.58Z"/><path class="cls-1" d="M45.38,24.84H34.62a1.56,1.56,0,0,0-1.56,1.56V53.6a1.56,1.56,0,0,0,1.56,1.56H45.38a1.56,1.56,0,0,0,1.56-1.56V26.4A1.56,1.56,0,0,0,45.38,24.84ZM46,53.6a.58.58,0,0,1-.58.58H34.62A.58.58,0,0,1,34,53.6V26.4a.58.58,0,0,1,.58-.58H45.38a.58.58,0,0,1,.58.58Z"/><path class="cls-1" d="M60.94,24.84H50.19a1.56,1.56,0,0,0-1.56,1.56V53.6a1.56,1.56,0,0,0,1.56,1.56H60.94A1.56,1.56,0,0,0,62.5,53.6V26.4A1.56,1.56,0,0,0,60.94,24.84Zm.58,28.77a.58.58,0,0,1-.58.58H50.19a.58.58,0,0,1-.58-.58V26.4a.58.58,0,0,1,.58-.58H60.94a.58.58,0,0,1,.58.58Z"/></g></svg>