<svg xmlns="http://www.w3.org/2000/svg" viewBox="0 0 80 80"><defs><style>.cls-1{fill:#404a4c;}</style></defs><title>Nimble_</title><g id="text_icon"><path class="cls-1" d="M62,33.82H35.91a.49.49,0,0,1,0-1H62a.49.49,0,1,1,0,1Z"/><path class="cls-1" d="M62,38.27H35.91a.49.49,0,0,1,0-1H62a.49.49,0,0,1,0,1Z"/><path class="cls-1" d="M62,42.72H35.91a.49.49,0,0,1,0-1H62a.49.49,0,0,1,0,1Z"/><path class="cls-1" d="M52.4,47.17H35.91a.49.49,0,0,1,0-1H52.4a.49.49,0,0,1,0,1Z"/><path class="cls-1" d="M29.8,48.41l0-3.33A6.39,6.39,0,0,1,27,47.62a9.08,9.08,0,0,1-4,.82,6.27,6.27,0,0,1-2.91-.65,4.85,4.85,0,0,1-2-1.76,4.7,4.7,0,0,1-.69-2.53,3.86,3.86,0,0,1,1.68-3.31A7.7,7.7,0,0,1,23.76,39h6V37.34A4.51,4.51,0,0,0,28.44,34a5.25,5.25,0,0,0-3.74-1.19,7.4,7.4,0,0,0-2.87.56A13,13,0,0,0,19,35l-.65-1a14.53,14.53,0,0,1,3.16-1.79,9,9,0,0,1,3.33-.6,6.33,6.33,0,0,1,4.54,1.52,5.57,5.57,0,0,1,1.63,4.16l.06,11.17Zm-2.45-2.26a6,6,0,0,0,2.42-3.23V40.18H23.89A7.06,7.06,0,0,0,20.1,41a2.74,2.74,0,0,0-1.31,2.45A3.39,3.39,0,0,0,20,46.18a4.83,4.83,0,0,0,3.24,1A7.5,7.5,0,0,0,27.35,46.15Z"/></g></svg>