<svg xmlns="http://www.w3.org/2000/svg" viewBox="0 0 80 80"><defs><style>.cls-1{fill:#404a4c;}</style></defs><title>Nimble_Final_icons</title><g id="html_icon"><path class="cls-1" d="M60.35,39.65l-9.41-9.41a.5.5,0,0,0-.71.71L59.29,40l-9.05,9.05a.5.5,0,1,0,.71.71l9.41-9.41A.5.5,0,0,0,60.35,39.65Z"/><path class="cls-1" d="M29.76,30.24a.5.5,0,0,0-.71,0l-9.41,9.41a.5.5,0,0,0,0,.71l9.41,9.41a.5.5,0,0,0,.71-.71L20.71,40l9.05-9.05A.5.5,0,0,0,29.76,30.24Z"/><path class="cls-1" d="M45.68,24.44a.5.5,0,0,0-.64.3L34,54.92a.5.5,0,1,0,.94.34L46,25.08A.5.5,0,0,0,45.68,24.44Z"/></g></svg>