<svg xmlns="http://www.w3.org/2000/svg" viewBox="0 0 80 80"><defs><style>.cls-1{fill:#404a4c;}</style></defs><title>Nimble_Final_icons</title><g id="map_icon"><path class="cls-1" d="M40,28a5.5,5.5,0,1,0,5.5,5.5A5.51,5.51,0,0,0,40,28Zm0,10a4.5,4.5,0,1,1,4.5-4.5A4.5,4.5,0,0,1,40,38Z"/><path class="cls-1" d="M52.48,32.68v-.19a12.48,12.48,0,0,0-24.94,0v.19c0,.14,0,.27,0,.41a12.46,12.46,0,0,0,.89,4.61l9.42,19.74c.08.2.86,2,2.19,2s2.1-1.78,2.18-2l9.43-19.76v0a12.43,12.43,0,0,0,.88-4.57C52.5,32.95,52.49,32.81,52.48,32.68Zm-1.78,4.6L41.26,57c-.19.45-.74,1.37-1.26,1.37s-1.08-.92-1.27-1.39L29.31,37.29a11.43,11.43,0,0,1-.81-4.21c0-.12,0-.23,0-.34v-.21a11.48,11.48,0,0,1,22.94,0v.21c0,.11,0,.23,0,.34A11.43,11.43,0,0,1,50.7,37.28Z"/></g></svg>