<svg xmlns="http://www.w3.org/2000/svg" viewBox="0 0 80 80"><defs><style>.cls-1{fill:#404a4c;}</style></defs><title>Nimble_Final_icons</title><g id="_4-columns_icon" data-name="4-columns_icon"><path class="cls-1" d="M25.91,55.16h-7a1.38,1.38,0,0,1-1.37-1.37V26.21a1.38,1.38,0,0,1,1.37-1.37h7a1.38,1.38,0,0,1,1.37,1.37V53.79A1.38,1.38,0,0,1,25.91,55.16Zm-7-29.35a.4.4,0,0,0-.4.4V53.79a.4.4,0,0,0,.4.4h7a.4.4,0,0,0,.4-.4V26.21a.4.4,0,0,0-.4-.4Z"/><path class="cls-1" d="M37.65,55.16h-7a1.38,1.38,0,0,1-1.37-1.37V26.21a1.38,1.38,0,0,1,1.37-1.37h7A1.38,1.38,0,0,1,39,26.21V53.79A1.38,1.38,0,0,1,37.65,55.16Zm-7-29.35a.4.4,0,0,0-.4.4V53.79a.4.4,0,0,0,.4.4h7a.4.4,0,0,0,.4-.4V26.21a.4.4,0,0,0-.4-.4Z"/><path class="cls-1" d="M49.39,55.16h-7A1.38,1.38,0,0,1,41,53.79V26.21a1.38,1.38,0,0,1,1.37-1.37h7a1.38,1.38,0,0,1,1.37,1.37V53.79A1.38,1.38,0,0,1,49.39,55.16Zm-7-29.35a.4.4,0,0,0-.4.4V53.79a.4.4,0,0,0,.4.4h7a.4.4,0,0,0,.4-.4V26.21a.4.4,0,0,0-.4-.4Z"/><path class="cls-1" d="M61.13,55.16h-7a1.38,1.38,0,0,1-1.37-1.37V26.21a1.38,1.38,0,0,1,1.37-1.37h7a1.38,1.38,0,0,1,1.37,1.37V53.79A1.38,1.38,0,0,1,61.13,55.16Zm-7-29.35a.4.4,0,0,0-.4.4V53.79a.4.4,0,0,0,.4.4h7a.4.4,0,0,0,.4-.4V26.21a.4.4,0,0,0-.4-.4Z"/></g></svg>