<?xml version="1.0" encoding="utf-8"?>
<!-- Generator: Adobe Illustrator 23.0.4, SVG Export Plug-In . SVG Version: 6.00 Build 0)  -->
<svg version="1.1" id="tabs_x5F_icon" xmlns="http://www.w3.org/2000/svg" xmlns:xlink="http://www.w3.org/1999/xlink" x="0px"
	 y="0px" viewBox="0 0 80 80" style="enable-background:new 0 0 80 80;" xml:space="preserve">
<style type="text/css">
	.st0{fill:#404A4C;}
</style>
<g>
	<g>
		<path class="st0" d="M44.9,31.2h-1v-3.4c0-0.1-0.1-0.2-0.2-0.2h-9c-0.1,0-0.2,0.1-0.2,0.2v3.4h-1v-3.4c0-0.7,0.6-1.2,1.2-1.2h9
			c0.7,0,1.2,0.6,1.2,1.2V31.2z"/>
		<path class="st0" d="M57.5,31.2h-1v-3.4c0-0.1-0.1-0.2-0.2-0.2h-9c-0.1,0-0.2,0.1-0.2,0.2v3.4h-1v-3.4c0-0.7,0.6-1.2,1.2-1.2h9
			c0.7,0,1.2,0.6,1.2,1.2V31.2z"/>
		<path class="st0" d="M57.6,53.4H22.4c-0.8,0-1.4-0.6-1.4-1.4V27.8c0-0.7,0.6-1.2,1.2-1.2h9c0.7,0,1.2,0.6,1.2,1.2v3h25.1
			c0.8,0,1.4,0.6,1.4,1.4V52C59,52.8,58.4,53.4,57.6,53.4z M22.2,27.6c-0.1,0-0.2,0.1-0.2,0.2V52c0,0.2,0.2,0.4,0.4,0.4h35.2
			c0.2,0,0.4-0.2,0.4-0.4V32.2c0-0.2-0.2-0.4-0.4-0.4H31.5v-4c0-0.1-0.1-0.2-0.2-0.2H22.2z"/>
	</g>
</g>
</svg>
